<svg xmlns="http://www.w3.org/2000/svg" xmlns:xlink="http://www.w3.org/1999/xlink" contentStyleType="text/css" height="1279px" preserveAspectRatio="none" style="width:2109px;height:1279px;background:#FFFFFF;" version="1.1" viewBox="0 0 2109 1279" width="2109px" zoomAndPan="magnify"><defs/><g><!--cluster Boggle--><g id="cluster_Boggle"><path d="M16.3,6.0137 L64.7414,6.0137 A3.75,3.75 0 0 1 67.2414,8.5137 L74.2414,30.6348 L2100.3,30.6348 A2.5,2.5 0 0 1 2102.8,33.1348 L2102.8,1269.5137 A2.5,2.5 0 0 1 2100.3,1272.0137 L16.3,1272.0137 A2.5,2.5 0 0 1 13.8,1269.5137 L13.8,8.5137 A2.5,2.5 0 0 1 16.3,6.0137 " fill="none" style="stroke:#000000;stroke-width:1.5;"/><line style="stroke:#000000;stroke-width:1.5;" x1="13.8" x2="74.2414" y1="30.6348" y2="30.6348"/><text fill="#000000" font-family="sans-serif" font-size="14" font-weight="bold" lengthAdjust="spacing" textLength="47.4414" x="17.8" y="23.1211">Boggle</text></g><!--class Die--><g id="elem_Die"><rect codeLine="3" fill="#F1F1F1" height="178.3477" id="Die" rx="2.5" ry="2.5" style="stroke:#181818;stroke-width:0.5;" width="193.2891" x="152.3" y="1078.0137"/><ellipse cx="234.1911" cy="1094.0137" fill="#ADD1B2" rx="11" ry="11" style="stroke:#181818;stroke-width:1.0;"/><path d="M236.9567,1089.8887 Q237.113,1089.6699 237.3005,1089.5605 Q237.488,1089.4512 237.7067,1089.4512 Q238.0817,1089.4512 238.3161,1089.7168 Q238.5505,1089.9668 238.5505,1090.5762 L238.5505,1092.0293 Q238.5505,1092.6387 238.3161,1092.9043 Q238.0817,1093.1699 237.7067,1093.1699 Q237.363,1093.1699 237.1599,1092.9668 Q236.9567,1092.7793 236.8474,1092.2637 Q236.8005,1091.9043 236.613,1091.7168 Q236.2849,1091.3418 235.6755,1091.123 Q235.0661,1090.9043 234.4411,1090.9043 Q233.6755,1090.9043 233.0349,1091.2324 Q232.4099,1091.5605 231.9099,1092.3105 Q231.4255,1093.0605 231.4255,1094.0918 L231.4255,1095.1855 Q231.4255,1096.4199 232.3161,1097.248 Q233.2067,1098.0605 234.8005,1098.0605 Q235.738,1098.0605 236.3942,1097.8105 Q236.7849,1097.6543 237.2067,1097.2168 Q237.4724,1096.9512 237.613,1096.873 Q237.7692,1096.7949 237.9724,1096.7949 Q238.3005,1096.7949 238.5505,1097.0605 Q238.8161,1097.3105 238.8161,1097.6543 Q238.8161,1097.998 238.4724,1098.4043 Q237.9724,1098.9824 237.1755,1099.3105 Q236.0974,1099.7637 234.8005,1099.7637 Q233.2849,1099.7637 232.0817,1099.1387 Q231.0974,1098.6387 230.4099,1097.5762 Q229.7224,1096.498 229.7224,1095.2168 L229.7224,1094.0605 Q229.7224,1092.7324 230.3317,1091.5918 Q230.9567,1090.4355 232.0505,1089.8262 Q233.1442,1089.2012 234.3786,1089.2012 Q235.113,1089.2012 235.7536,1089.373 Q236.4099,1089.5293 236.9567,1089.8887 Z " fill="#000000"/><text fill="#000000" font-family="sans-serif" font-size="14" lengthAdjust="spacing" textLength="21.0068" x="254.6911" y="1099.8105">Die</text><line style="stroke:#181818;stroke-width:0.5;" x1="153.3" x2="344.5891" y1="1110.0137" y2="1110.0137"/><rect fill="none" height="6" style="stroke:#C82930;stroke-width:1.0;" width="6" x="160.3" y="1121.8242"/><text fill="#000000" font-family="sans-serif" font-size="14" lengthAdjust="spacing" textLength="72.3652" x="172.3" y="1129.1211">char[] faces</text><rect fill="none" height="6" style="stroke:#C82930;stroke-width:1.0;" width="6" x="160.3" y="1140.4453"/><text fill="#000000" font-family="sans-serif" font-size="14" lengthAdjust="spacing" textLength="101.1514" x="172.3" y="1147.7422">char visibleFace</text><ellipse cx="163.3" cy="1162.0664" fill="none" rx="3" ry="3" style="stroke:#038048;stroke-width:1.0;"/><text fill="#000000" font-family="sans-serif" font-size="14" lengthAdjust="spacing" textLength="147.8613" x="172.3" y="1166.3633">char VisibleFace { get; }</text><ellipse cx="163.3" cy="1180.6875" fill="none" rx="3" ry="3" style="stroke:#038048;stroke-width:1.0;"/><text fill="#000000" font-family="sans-serif" font-size="14" lengthAdjust="spacing" textLength="101.958" x="172.3" y="1184.9844">int Points { get; }</text><line style="stroke:#181818;stroke-width:0.5;" x1="153.3" x2="344.5891" y1="1192.498" y2="1192.498"/><ellipse cx="163.3" cy="1207.3086" fill="#84BE84" rx="3" ry="3" style="stroke:#038048;stroke-width:1.0;"/><text fill="#000000" font-family="sans-serif" font-size="14" lengthAdjust="spacing" textLength="134.6064" x="172.3" y="1211.6055">Die(Random random)</text><ellipse cx="163.3" cy="1225.9297" fill="#84BE84" rx="3" ry="3" style="stroke:#038048;stroke-width:1.0;"/><text fill="#000000" font-family="sans-serif" font-size="14" lengthAdjust="spacing" textLength="167.2891" x="172.3" y="1230.2266">void Roll(Random random)</text><ellipse cx="163.3" cy="1244.5508" fill="#84BE84" rx="3" ry="3" style="stroke:#038048;stroke-width:1.0;"/><text fill="#000000" font-family="sans-serif" font-size="14" lengthAdjust="spacing" textLength="100.3584" x="172.3" y="1248.8477">string ToString()</text></g><!--class Game--><g id="elem_Game"><rect codeLine="13" fill="#F1F1F1" height="476.2852" id="Game" rx="2.5" ry="2.5" style="stroke:#181818;stroke-width:0.5;" width="287.4268" x="1078.3" y="43.0137"/><ellipse cx="1198.7014" cy="59.0137" fill="#ADD1B2" rx="11" ry="11" style="stroke:#181818;stroke-width:1.0;"/><path d="M1201.467,54.8887 Q1201.6232,54.6699 1201.8107,54.5605 Q1201.9982,54.4512 1202.217,54.4512 Q1202.592,54.4512 1202.8264,54.7168 Q1203.0607,54.9668 1203.0607,55.5762 L1203.0607,57.0293 Q1203.0607,57.6387 1202.8264,57.9043 Q1202.592,58.1699 1202.217,58.1699 Q1201.8732,58.1699 1201.6701,57.9668 Q1201.467,57.7793 1201.3576,57.2637 Q1201.3107,56.9043 1201.1232,56.7168 Q1200.7951,56.3418 1200.1857,56.123 Q1199.5764,55.9043 1198.9514,55.9043 Q1198.1857,55.9043 1197.5451,56.2324 Q1196.9201,56.5605 1196.4201,57.3105 Q1195.9357,58.0605 1195.9357,59.0918 L1195.9357,60.1855 Q1195.9357,61.4199 1196.8264,62.248 Q1197.717,63.0605 1199.3107,63.0605 Q1200.2482,63.0605 1200.9045,62.8105 Q1201.2951,62.6543 1201.717,62.2168 Q1201.9826,61.9512 1202.1232,61.873 Q1202.2795,61.7949 1202.4826,61.7949 Q1202.8107,61.7949 1203.0607,62.0605 Q1203.3264,62.3105 1203.3264,62.6543 Q1203.3264,62.998 1202.9826,63.4043 Q1202.4826,63.9824 1201.6857,64.3105 Q1200.6076,64.7637 1199.3107,64.7637 Q1197.7951,64.7637 1196.592,64.1387 Q1195.6076,63.6387 1194.9201,62.5762 Q1194.2326,61.498 1194.2326,60.2168 L1194.2326,59.0605 Q1194.2326,57.7324 1194.842,56.5918 Q1195.467,55.4355 1196.5607,54.8262 Q1197.6545,54.2012 1198.8889,54.2012 Q1199.6232,54.2012 1200.2639,54.373 Q1200.9201,54.5293 1201.467,54.8887 Z " fill="#000000"/><text fill="#000000" font-family="sans-serif" font-size="14" lengthAdjust="spacing" textLength="38.124" x="1219.2014" y="64.8105">Game</text><line style="stroke:#181818;stroke-width:0.5;" x1="1079.3" x2="1364.7268" y1="75.0137" y2="75.0137"/><rect fill="none" height="6" style="stroke:#C82930;stroke-width:1.0;" width="6" x="1086.3" y="86.8242"/><text fill="#000000" font-family="sans-serif" font-size="14" lengthAdjust="spacing" textLength="209.3301" x="1098.3" y="94.1211">static Stopwatch playerStopwatch</text><rect fill="none" height="6" style="stroke:#C82930;stroke-width:1.0;" width="6" x="1086.3" y="105.4453"/><text fill="#000000" font-family="sans-serif" font-size="14" lengthAdjust="spacing" textLength="110.4756" x="1098.3" y="112.7422">static int turnTime</text><rect fill="none" height="6" style="stroke:#C82930;stroke-width:1.0;" width="6" x="1086.3" y="124.0664"/><text fill="#000000" font-family="sans-serif" font-size="14" lengthAdjust="spacing" textLength="117.4893" x="1098.3" y="131.3633">static int totalTurns</text><rect fill="none" height="6" style="stroke:#C82930;stroke-width:1.0;" width="6" x="1086.3" y="142.6875"/><text fill="#000000" font-family="sans-serif" font-size="14" lengthAdjust="spacing" textLength="178.1924" x="1098.3" y="149.9844">static List&lt;Player&gt; playerList</text><rect fill="none" height="6" style="stroke:#C82930;stroke-width:1.0;" width="6" x="1086.3" y="161.3086"/><text fill="#000000" font-family="sans-serif" font-size="14" lengthAdjust="spacing" textLength="118.2822" x="1098.3" y="168.6055">static int boardSize</text><rect fill="none" height="6" style="stroke:#C82930;stroke-width:1.0;" width="6" x="1086.3" y="179.9297"/><text fill="#000000" font-family="sans-serif" font-size="14" lengthAdjust="spacing" textLength="173.5029" x="1098.3" y="187.2266">static EmbedText scoreText</text><ellipse cx="1089.3" cy="201.5508" fill="none" rx="3" ry="3" style="stroke:#038048;stroke-width:1.0;"/><text fill="#000000" font-family="sans-serif" font-size="14" lengthAdjust="spacing" textLength="224.1162" x="1098.3" y="205.8477">static List&lt;Player&gt; PlayerList { get; }</text><line style="stroke:#181818;stroke-width:0.5;" x1="1079.3" x2="1364.7268" y1="213.3613" y2="213.3613"/><ellipse cx="1089.3" cy="228.1719" fill="#84BE84" rx="3" ry="3" style="stroke:#038048;stroke-width:1.0;"/><text fill="#000000" font-family="sans-serif" font-size="14" lengthAdjust="spacing" textLength="105.8066" x="1098.3" y="232.4688">static void Main()</text><rect fill="#F24D5C" height="6" style="stroke:#C82930;stroke-width:1.0;" width="6" x="1086.3" y="243.793"/><text fill="#000000" font-family="sans-serif" font-size="14" lengthAdjust="spacing" textLength="140.041" x="1098.3" y="251.0898">static void InitializeUI()</text><rect fill="#F24D5C" height="6" style="stroke:#C82930;stroke-width:1.0;" width="6" x="1086.3" y="262.4141"/><text fill="#000000" font-family="sans-serif" font-size="14" lengthAdjust="spacing" textLength="164.165" x="1098.3" y="269.7109">static void InitializeGame()</text><rect fill="#F24D5C" height="6" style="stroke:#C82930;stroke-width:1.0;" width="6" x="1086.3" y="281.0352"/><text fill="#000000" font-family="sans-serif" font-size="14" lengthAdjust="spacing" textLength="188.3301" x="1098.3" y="288.332">static void InitializeLanguage()</text><rect fill="#F24D5C" height="6" style="stroke:#C82930;stroke-width:1.0;" width="6" x="1086.3" y="299.6563"/><text fill="#000000" font-family="sans-serif" font-size="14" lengthAdjust="spacing" textLength="163.3994" x="1098.3" y="306.9531">static void InitializeBoard()</text><rect fill="#F24D5C" height="6" style="stroke:#C82930;stroke-width:1.0;" width="6" x="1086.3" y="318.2773"/><text fill="#000000" font-family="sans-serif" font-size="14" lengthAdjust="spacing" textLength="236.5234" x="1098.3" y="325.5742">static void InitializeGameParameters()</text><rect fill="#F24D5C" height="6" style="stroke:#C82930;stroke-width:1.0;" width="6" x="1086.3" y="336.8984"/><text fill="#000000" font-family="sans-serif" font-size="14" lengthAdjust="spacing" textLength="172.7236" x="1098.3" y="344.1953">static void InitializePlayers()</text><rect fill="#F24D5C" height="6" style="stroke:#C82930;stroke-width:1.0;" width="6" x="1086.3" y="355.5195"/><text fill="#000000" font-family="sans-serif" font-size="14" lengthAdjust="spacing" textLength="192.9512" x="1098.3" y="362.8164">static void DisplayInstructions()</text><rect fill="#F24D5C" height="6" style="stroke:#C82930;stroke-width:1.0;" width="6" x="1086.3" y="374.1406"/><text fill="#000000" font-family="sans-serif" font-size="14" lengthAdjust="spacing" textLength="164.9375" x="1098.3" y="381.4375">static void DisplayScores()</text><rect fill="#F24D5C" height="6" style="stroke:#C82930;stroke-width:1.0;" width="6" x="1086.3" y="392.7617"/><text fill="#000000" font-family="sans-serif" font-size="14" lengthAdjust="spacing" textLength="138.4961" x="1098.3" y="400.0586">static void EndGame()</text><rect fill="#F24D5C" height="6" style="stroke:#C82930;stroke-width:1.0;" width="6" x="1086.3" y="411.3828"/><text fill="#000000" font-family="sans-serif" font-size="14" lengthAdjust="spacing" textLength="195.2822" x="1098.3" y="418.6797">static void DisplayFinalScores()</text><rect fill="#F24D5C" height="6" style="stroke:#C82930;stroke-width:1.0;" width="6" x="1086.3" y="430.0039"/><text fill="#000000" font-family="sans-serif" font-size="14" lengthAdjust="spacing" textLength="191.3926" x="1098.3" y="437.3008">static void DisplayWordCloud()</text><rect fill="#F24D5C" height="6" style="stroke:#C82930;stroke-width:1.0;" width="6" x="1086.3" y="448.625"/><text fill="#000000" font-family="sans-serif" font-size="14" lengthAdjust="spacing" textLength="180.5029" x="1098.3" y="455.9219">static void WaitBeforeClose()</text><rect fill="#F24D5C" height="6" style="stroke:#C82930;stroke-width:1.0;" width="6" x="1086.3" y="467.2461"/><text fill="#000000" font-family="sans-serif" font-size="14" lengthAdjust="spacing" textLength="144.7305" x="1098.3" y="474.543">static void GameLoop()</text><rect fill="#F24D5C" height="6" style="stroke:#C82930;stroke-width:1.0;" width="6" x="1086.3" y="485.8672"/><text fill="#000000" font-family="sans-serif" font-size="14" lengthAdjust="spacing" textLength="227.9922" x="1098.3" y="493.1641">static void PlayerLoop(Player player)</text><rect fill="#F24D5C" height="6" style="stroke:#C82930;stroke-width:1.0;" width="6" x="1086.3" y="504.4883"/><text fill="#000000" font-family="sans-serif" font-size="14" lengthAdjust="spacing" textLength="261.4268" x="1098.3" y="511.7852">static bool IsTimeInTurnInterval(long time)</text></g><!--class Board--><g id="elem_Board"><rect codeLine="39" fill="#F1F1F1" height="439.043" id="Board" rx="2.5" ry="2.5" style="stroke:#181818;stroke-width:0.5;" width="604.915" x="67.3" y="579.0137"/><ellipse cx="346.8283" cy="595.0137" fill="#ADD1B2" rx="11" ry="11" style="stroke:#181818;stroke-width:1.0;"/><path d="M349.5939,590.8887 Q349.7502,590.6699 349.9377,590.5605 Q350.1252,590.4512 350.3439,590.4512 Q350.7189,590.4512 350.9533,590.7168 Q351.1877,590.9668 351.1877,591.5762 L351.1877,593.0293 Q351.1877,593.6387 350.9533,593.9043 Q350.7189,594.1699 350.3439,594.1699 Q350.0002,594.1699 349.7971,593.9668 Q349.5939,593.7793 349.4846,593.2637 Q349.4377,592.9043 349.2502,592.7168 Q348.9221,592.3418 348.3127,592.123 Q347.7033,591.9043 347.0783,591.9043 Q346.3127,591.9043 345.6721,592.2324 Q345.0471,592.5605 344.5471,593.3105 Q344.0627,594.0605 344.0627,595.0918 L344.0627,596.1855 Q344.0627,597.4199 344.9533,598.248 Q345.8439,599.0605 347.4377,599.0605 Q348.3752,599.0605 349.0314,598.8105 Q349.4221,598.6543 349.8439,598.2168 Q350.1096,597.9512 350.2502,597.873 Q350.4064,597.7949 350.6096,597.7949 Q350.9377,597.7949 351.1877,598.0605 Q351.4533,598.3105 351.4533,598.6543 Q351.4533,598.998 351.1096,599.4043 Q350.6096,599.9824 349.8127,600.3105 Q348.7346,600.7637 347.4377,600.7637 Q345.9221,600.7637 344.7189,600.1387 Q343.7346,599.6387 343.0471,598.5762 Q342.3596,597.498 342.3596,596.2168 L342.3596,595.0605 Q342.3596,593.7324 342.9689,592.5918 Q343.5939,591.4355 344.6877,590.8262 Q345.7814,590.2012 347.0158,590.2012 Q347.7502,590.2012 348.3908,590.373 Q349.0471,590.5293 349.5939,590.8887 Z " fill="#000000"/><text fill="#000000" font-family="sans-serif" font-size="14" lengthAdjust="spacing" textLength="37.3584" x="367.3283" y="600.8105">Board</text><line style="stroke:#181818;stroke-width:0.5;" x1="68.3" x2="671.215" y1="611.0137" y2="611.0137"/><rect fill="none" height="6" style="stroke:#C82930;stroke-width:1.0;" width="6" x="75.3" y="622.8242"/><text fill="#000000" font-family="sans-serif" font-size="14" lengthAdjust="spacing" textLength="98.0342" x="87.3" y="630.1211">static Random r</text><rect fill="none" height="6" style="stroke:#C82930;stroke-width:1.0;" width="6" x="75.3" y="641.4453"/><text fill="#000000" font-family="sans-serif" font-size="14" lengthAdjust="spacing" textLength="108.9375" x="87.3" y="648.7422">static Die[,] board</text><rect fill="none" height="6" style="stroke:#C82930;stroke-width:1.0;" width="6" x="75.3" y="660.0664"/><text fill="#000000" font-family="sans-serif" font-size="14" lengthAdjust="spacing" textLength="188.3096" x="87.3" y="667.3633">static List&lt;string&gt; foundWords</text><line style="stroke:#181818;stroke-width:0.5;" x1="68.3" x2="671.215" y1="674.877" y2="674.877"/><ellipse cx="78.3" cy="689.6875" fill="#84BE84" rx="3" ry="3" style="stroke:#038048;stroke-width:1.0;"/><text fill="#000000" font-family="sans-serif" font-size="14" lengthAdjust="spacing" textLength="169.6133" x="87.3" y="693.9844">static void Initialize(int size)</text><rect fill="#F24D5C" height="6" style="stroke:#C82930;stroke-width:1.0;" width="6" x="75.3" y="705.3086"/><text fill="#000000" font-family="sans-serif" font-size="14" lengthAdjust="spacing" textLength="207.7236" x="87.3" y="712.6055">static void InitializeMatrix(int size)</text><rect fill="#F24D5C" height="6" style="stroke:#C82930;stroke-width:1.0;" width="6" x="75.3" y="723.9297"/><text fill="#000000" font-family="sans-serif" font-size="14" lengthAdjust="spacing" textLength="269.9854" x="87.3" y="731.2266">static void UpdateMaxOccurrences(int size)</text><ellipse cx="78.3" cy="745.5508" fill="#84BE84" rx="3" ry="3" style="stroke:#038048;stroke-width:1.0;"/><text fill="#000000" font-family="sans-serif" font-size="14" lengthAdjust="spacing" textLength="121.3926" x="87.3" y="749.8477">static void Launch()</text><rect fill="#F24D5C" height="6" style="stroke:#C82930;stroke-width:1.0;" width="6" x="75.3" y="761.1719"/><text fill="#000000" font-family="sans-serif" font-size="14" lengthAdjust="spacing" textLength="481.6465" x="87.3" y="768.4688">static void FillBoardWithConstraints(SortedList&lt;char, int&gt; occurrenceCounter)</text><rect fill="#F24D5C" height="6" style="stroke:#C82930;stroke-width:1.0;" width="6" x="75.3" y="779.793"/><text fill="#000000" font-family="sans-serif" font-size="14" lengthAdjust="spacing" textLength="560.2529" x="87.3" y="787.0898">static void GenerateValidFaceForCell(int x, int y, SortedList&lt;char, int&gt; occurrenceCounter)</text><ellipse cx="78.3" cy="801.4141" fill="#84BE84" rx="3" ry="3" style="stroke:#038048;stroke-width:1.0;"/><text fill="#000000" font-family="sans-serif" font-size="14" lengthAdjust="spacing" textLength="331.4541" x="87.3" y="805.7109">static bool TestWord(string word, out string message)</text><rect fill="#F24D5C" height="6" style="stroke:#C82930;stroke-width:1.0;" width="6" x="75.3" y="817.0352"/><text fill="#000000" font-family="sans-serif" font-size="14" lengthAdjust="spacing" textLength="222.5098" x="87.3" y="824.332">static string CleanWord(string word)</text><rect fill="#F24D5C" height="6" style="stroke:#C82930;stroke-width:1.0;" width="6" x="75.3" y="835.6563"/><text fill="#000000" font-family="sans-serif" font-size="14" lengthAdjust="spacing" textLength="268.4678" x="87.3" y="842.9531">static bool IsWordLongEnough(string word)</text><rect fill="#F24D5C" height="6" style="stroke:#C82930;stroke-width:1.0;" width="6" x="75.3" y="854.2773"/><text fill="#000000" font-family="sans-serif" font-size="14" lengthAdjust="spacing" textLength="250.5371" x="87.3" y="861.5742">static bool IsWordNotFound(string word)</text><rect fill="#F24D5C" height="6" style="stroke:#C82930;stroke-width:1.0;" width="6" x="75.3" y="872.8984"/><text fill="#000000" font-family="sans-serif" font-size="14" lengthAdjust="spacing" textLength="238.0889" x="87.3" y="880.1953">static bool IsWordInBoard(string word)</text><rect fill="#F24D5C" height="6" style="stroke:#C82930;stroke-width:1.0;" width="6" x="75.3" y="891.5195"/><text fill="#000000" font-family="sans-serif" font-size="14" lengthAdjust="spacing" textLength="262.9717" x="87.3" y="898.8164">static bool IsWordInDictionary(string word)</text><ellipse cx="78.3" cy="913.1406" fill="#84BE84" rx="3" ry="3" style="stroke:#038048;stroke-width:1.0;"/><text fill="#000000" font-family="sans-serif" font-size="14" lengthAdjust="spacing" textLength="199.9717" x="87.3" y="917.4375">static bool Contains(string word)</text><rect fill="#F24D5C" height="6" style="stroke:#C82930;stroke-width:1.0;" width="6" x="75.3" y="928.7617"/><text fill="#000000" font-family="sans-serif" font-size="14" lengthAdjust="spacing" textLength="438.8467" x="87.3" y="936.0586">static bool SearchWord(string word, int index, int x, int y, bool[,] visited)</text><rect fill="#F24D5C" height="6" style="stroke:#C82930;stroke-width:1.0;" width="6" x="75.3" y="947.3828"/><text fill="#000000" font-family="sans-serif" font-size="14" lengthAdjust="spacing" textLength="578.915" x="87.3" y="954.6797">static bool DoesNextLetterMatch(string word, int index, int x, int y, int dx, int dy, bool[,] visited)</text><rect fill="#F24D5C" height="6" style="stroke:#C82930;stroke-width:1.0;" width="6" x="75.3" y="966.0039"/><text fill="#000000" font-family="sans-serif" font-size="14" lengthAdjust="spacing" textLength="263.7852" x="87.3" y="973.3008">static bool AreCoordinatesValid(int x, int y)</text><ellipse cx="78.3" cy="987.625" fill="#84BE84" rx="3" ry="3" style="stroke:#038048;stroke-width:1.0;"/><text fill="#000000" font-family="sans-serif" font-size="14" lengthAdjust="spacing" textLength="132.2617" x="87.3" y="991.9219">static string toString()</text><ellipse cx="78.3" cy="1006.2461" fill="#84BE84" rx="3" ry="3" style="stroke:#038048;stroke-width:1.0;"/><text fill="#000000" font-family="sans-serif" font-size="14" lengthAdjust="spacing" textLength="221.7578" x="87.3" y="1010.543">static List&lt;List&lt;char&gt;&gt; ToCharList()</text></g><!--class Language--><g id="elem_Language"><rect codeLine="63" fill="#F1F1F1" height="290.0742" id="Language" rx="2.5" ry="2.5" style="stroke:#181818;stroke-width:0.5;" width="372.2744" x="183.8" y="136.0137"/><ellipse cx="334.5427" cy="152.0137" fill="#ADD1B2" rx="11" ry="11" style="stroke:#181818;stroke-width:1.0;"/><path d="M337.3083,147.8887 Q337.4646,147.6699 337.6521,147.5605 Q337.8396,147.4512 338.0583,147.4512 Q338.4333,147.4512 338.6677,147.7168 Q338.9021,147.9668 338.9021,148.5762 L338.9021,150.0293 Q338.9021,150.6387 338.6677,150.9043 Q338.4333,151.1699 338.0583,151.1699 Q337.7146,151.1699 337.5114,150.9668 Q337.3083,150.7793 337.1989,150.2637 Q337.1521,149.9043 336.9646,149.7168 Q336.6364,149.3418 336.0271,149.123 Q335.4177,148.9043 334.7927,148.9043 Q334.0271,148.9043 333.3864,149.2324 Q332.7614,149.5605 332.2614,150.3105 Q331.7771,151.0605 331.7771,152.0918 L331.7771,153.1855 Q331.7771,154.4199 332.6677,155.248 Q333.5583,156.0605 335.1521,156.0605 Q336.0896,156.0605 336.7458,155.8105 Q337.1364,155.6543 337.5583,155.2168 Q337.8239,154.9512 337.9646,154.873 Q338.1208,154.7949 338.3239,154.7949 Q338.6521,154.7949 338.9021,155.0605 Q339.1677,155.3105 339.1677,155.6543 Q339.1677,155.998 338.8239,156.4043 Q338.3239,156.9824 337.5271,157.3105 Q336.4489,157.7637 335.1521,157.7637 Q333.6364,157.7637 332.4333,157.1387 Q331.4489,156.6387 330.7614,155.5762 Q330.0739,154.498 330.0739,153.2168 L330.0739,152.0605 Q330.0739,150.7324 330.6833,149.5918 Q331.3083,148.4355 332.4021,147.8262 Q333.4958,147.2012 334.7302,147.2012 Q335.4646,147.2012 336.1052,147.373 Q336.7614,147.5293 337.3083,147.8887 Z " fill="#000000"/><text fill="#000000" font-family="sans-serif" font-size="14" lengthAdjust="spacing" textLength="62.2891" x="355.0427" y="157.8105">Language</text><line style="stroke:#181818;stroke-width:0.5;" x1="184.8" x2="555.0744" y1="168.0137" y2="168.0137"/><rect fill="none" height="6" style="stroke:#C82930;stroke-width:1.0;" width="6" x="191.8" y="179.8242"/><text fill="#000000" font-family="sans-serif" font-size="14" lengthAdjust="spacing" textLength="165.7715" x="203.8" y="187.1211">static string languageCode</text><rect fill="none" height="6" style="stroke:#C82930;stroke-width:1.0;" width="6" x="191.8" y="198.4453"/><text fill="#000000" font-family="sans-serif" font-size="14" lengthAdjust="spacing" textLength="264.585" x="203.8" y="205.7422">static SortedList&lt;char, int&gt; pointsPerLetter</text><rect fill="none" height="6" style="stroke:#C82930;stroke-width:1.0;" width="6" x="191.8" y="217.0664"/><text fill="#000000" font-family="sans-serif" font-size="14" lengthAdjust="spacing" textLength="333.0332" x="203.8" y="224.3633">static SortedList&lt;char, int&gt; maxOccurrencesPerLetter</text><rect fill="none" height="6" style="stroke:#C82930;stroke-width:1.0;" width="6" x="191.8" y="235.6875"/><text fill="#000000" font-family="sans-serif" font-size="14" lengthAdjust="spacing" textLength="182.8545" x="203.8" y="242.9844">static char[] letterProbabilities</text><ellipse cx="194.8" cy="257.3086" fill="none" rx="3" ry="3" style="stroke:#038048;stroke-width:1.0;"/><text fill="#000000" font-family="sans-serif" font-size="14" lengthAdjust="spacing" textLength="214.8193" x="203.8" y="261.6055">static string LanguageCode { get; }</text><ellipse cx="194.8" cy="275.9297" fill="none" rx="3" ry="3" style="stroke:#038048;stroke-width:1.0;"/><text fill="#000000" font-family="sans-serif" font-size="14" lengthAdjust="spacing" textLength="346.2744" x="203.8" y="280.2266">static SortedList&lt;char, int&gt; MaxOccurrences { get; set; }</text><ellipse cx="194.8" cy="294.5508" fill="none" rx="3" ry="3" style="stroke:#038048;stroke-width:1.0;"/><text fill="#000000" font-family="sans-serif" font-size="14" lengthAdjust="spacing" textLength="310.5088" x="203.8" y="298.8477">static SortedList&lt;char, int&gt; PointsPerLetter { get; }</text><line style="stroke:#181818;stroke-width:0.5;" x1="184.8" x2="555.0744" y1="306.3613" y2="306.3613"/><ellipse cx="194.8" cy="321.1719" fill="#84BE84" rx="3" ry="3" style="stroke:#038048;stroke-width:1.0;"/><text fill="#000000" font-family="sans-serif" font-size="14" lengthAdjust="spacing" textLength="221.7783" x="203.8" y="325.4688">static void Initialize(string language)</text><ellipse cx="194.8" cy="339.793" fill="#84BE84" rx="3" ry="3" style="stroke:#038048;stroke-width:1.0;"/><text fill="#000000" font-family="sans-serif" font-size="14" lengthAdjust="spacing" textLength="299.5713" x="203.8" y="344.0898">static char GetLetterByProbability(int probability)</text><rect fill="#F24D5C" height="6" style="stroke:#C82930;stroke-width:1.0;" width="6" x="191.8" y="355.4141"/><text fill="#000000" font-family="sans-serif" font-size="14" lengthAdjust="spacing" textLength="294.1914" x="203.8" y="362.7109">static void FindLanguageCode(string language)</text><rect fill="#F24D5C" height="6" style="stroke:#C82930;stroke-width:1.0;" width="6" x="191.8" y="374.0352"/><text fill="#000000" font-family="sans-serif" font-size="14" lengthAdjust="spacing" textLength="219.4131" x="203.8" y="381.332">static void InitializeDataStructures()</text><rect fill="#F24D5C" height="6" style="stroke:#C82930;stroke-width:1.0;" width="6" x="191.8" y="392.6563"/><text fill="#000000" font-family="sans-serif" font-size="14" lengthAdjust="spacing" textLength="131.4893" x="203.8" y="399.9531">static void ReadFile()</text><ellipse cx="194.8" cy="414.2773" fill="#84BE84" rx="3" ry="3" style="stroke:#038048;stroke-width:1.0;"/><text fill="#000000" font-family="sans-serif" font-size="14" lengthAdjust="spacing" textLength="227.9717" x="203.8" y="418.5742">static int CalculateScore(string word)</text></g><!--class WordCloud--><g id="elem_WordCloud"><rect codeLine="79" fill="#F1F1F1" height="66.6211" id="WordCloud" rx="2.5" ry="2.5" style="stroke:#181818;stroke-width:0.5;" width="487.4121" x="1599.3" y="1133.5137"/><ellipse cx="1803.7424" cy="1149.5137" fill="#ADD1B2" rx="11" ry="11" style="stroke:#181818;stroke-width:1.0;"/><path d="M1806.508,1145.3887 Q1806.6643,1145.1699 1806.8518,1145.0605 Q1807.0393,1144.9512 1807.258,1144.9512 Q1807.633,1144.9512 1807.8674,1145.2168 Q1808.1018,1145.4668 1808.1018,1146.0762 L1808.1018,1147.5293 Q1808.1018,1148.1387 1807.8674,1148.4043 Q1807.633,1148.6699 1807.258,1148.6699 Q1806.9143,1148.6699 1806.7111,1148.4668 Q1806.508,1148.2793 1806.3986,1147.7637 Q1806.3518,1147.4043 1806.1643,1147.2168 Q1805.8361,1146.8418 1805.2268,1146.623 Q1804.6174,1146.4043 1803.9924,1146.4043 Q1803.2268,1146.4043 1802.5861,1146.7324 Q1801.9611,1147.0605 1801.4611,1147.8105 Q1800.9768,1148.5605 1800.9768,1149.5918 L1800.9768,1150.6855 Q1800.9768,1151.9199 1801.8674,1152.748 Q1802.758,1153.5605 1804.3518,1153.5605 Q1805.2893,1153.5605 1805.9455,1153.3105 Q1806.3361,1153.1543 1806.758,1152.7168 Q1807.0236,1152.4512 1807.1643,1152.373 Q1807.3205,1152.2949 1807.5236,1152.2949 Q1807.8518,1152.2949 1808.1018,1152.5605 Q1808.3674,1152.8105 1808.3674,1153.1543 Q1808.3674,1153.498 1808.0236,1153.9043 Q1807.5236,1154.4824 1806.7268,1154.8105 Q1805.6486,1155.2637 1804.3518,1155.2637 Q1802.8361,1155.2637 1801.633,1154.6387 Q1800.6486,1154.1387 1799.9611,1153.0762 Q1799.2736,1151.998 1799.2736,1150.7168 L1799.2736,1149.5605 Q1799.2736,1148.2324 1799.883,1147.0918 Q1800.508,1145.9355 1801.6018,1145.3262 Q1802.6955,1144.7012 1803.9299,1144.7012 Q1804.6643,1144.7012 1805.3049,1144.873 Q1805.9611,1145.0293 1806.508,1145.3887 Z " fill="#000000"/><text fill="#000000" font-family="sans-serif" font-size="14" lengthAdjust="spacing" textLength="70.0273" x="1824.2424" y="1155.3105">WordCloud</text><line style="stroke:#181818;stroke-width:0.5;" x1="1600.3" x2="2085.7121" y1="1165.5137" y2="1165.5137"/><line style="stroke:#181818;stroke-width:0.5;" x1="1600.3" x2="2085.7121" y1="1173.5137" y2="1173.5137"/><ellipse cx="1610.3" cy="1188.3242" fill="#84BE84" rx="3" ry="3" style="stroke:#038048;stroke-width:1.0;"/><text fill="#000000" font-family="sans-serif" font-size="14" lengthAdjust="spacing" textLength="461.4121" x="1619.3" y="1192.6211">static void GenerateWordCloud(Dictionary&lt;string, int&gt; words, string name)</text></g><!--class CustomDictionary--><g id="elem_CustomDictionary"><rect codeLine="83" fill="#F1F1F1" height="308.6953" id="CustomDictionary" rx="2.5" ry="2.5" style="stroke:#181818;stroke-width:0.5;" width="1028.21" x="707.8" y="644.0137"/><ellipse cx="1162.4172" cy="660.0137" fill="#ADD1B2" rx="11" ry="11" style="stroke:#181818;stroke-width:1.0;"/><path d="M1165.1828,655.8887 Q1165.3391,655.6699 1165.5266,655.5605 Q1165.7141,655.4512 1165.9328,655.4512 Q1166.3078,655.4512 1166.5422,655.7168 Q1166.7766,655.9668 1166.7766,656.5762 L1166.7766,658.0293 Q1166.7766,658.6387 1166.5422,658.9043 Q1166.3078,659.1699 1165.9328,659.1699 Q1165.5891,659.1699 1165.3859,658.9668 Q1165.1828,658.7793 1165.0734,658.2637 Q1165.0266,657.9043 1164.8391,657.7168 Q1164.5109,657.3418 1163.9016,657.123 Q1163.2922,656.9043 1162.6672,656.9043 Q1161.9016,656.9043 1161.2609,657.2324 Q1160.6359,657.5605 1160.1359,658.3105 Q1159.6516,659.0605 1159.6516,660.0918 L1159.6516,661.1855 Q1159.6516,662.4199 1160.5422,663.248 Q1161.4328,664.0605 1163.0266,664.0605 Q1163.9641,664.0605 1164.6203,663.8105 Q1165.0109,663.6543 1165.4328,663.2168 Q1165.6984,662.9512 1165.8391,662.873 Q1165.9953,662.7949 1166.1984,662.7949 Q1166.5266,662.7949 1166.7766,663.0605 Q1167.0422,663.3105 1167.0422,663.6543 Q1167.0422,663.998 1166.6984,664.4043 Q1166.1984,664.9824 1165.4016,665.3105 Q1164.3234,665.7637 1163.0266,665.7637 Q1161.5109,665.7637 1160.3078,665.1387 Q1159.3234,664.6387 1158.6359,663.5762 Q1157.9484,662.498 1157.9484,661.2168 L1157.9484,660.0605 Q1157.9484,658.7324 1158.5578,657.5918 Q1159.1828,656.4355 1160.2766,655.8262 Q1161.3703,655.2012 1162.6047,655.2012 Q1163.3391,655.2012 1163.9797,655.373 Q1164.6359,655.5293 1165.1828,655.8887 Z " fill="#000000"/><text fill="#000000" font-family="sans-serif" font-size="14" lengthAdjust="spacing" textLength="110.4756" x="1182.9172" y="665.8105">CustomDictionary</text><line style="stroke:#181818;stroke-width:0.5;" x1="708.8" x2="1735.01" y1="676.0137" y2="676.0137"/><rect fill="none" height="6" style="stroke:#C82930;stroke-width:1.0;" width="6" x="715.8" y="687.8242"/><text fill="#000000" font-family="sans-serif" font-size="14" lengthAdjust="spacing" textLength="321.3779" x="727.8" y="695.1211">static SortedDictionary&lt;int, string[]&gt; wordsByLength</text><rect fill="none" height="6" style="stroke:#C82930;stroke-width:1.0;" width="6" x="715.8" y="706.4453"/><text fill="#000000" font-family="sans-serif" font-size="14" lengthAdjust="spacing" textLength="326.8057" x="727.8" y="713.7422">static SortedDictionary&lt;char, string[]&gt; wordsByLetter</text><rect fill="none" height="6" style="stroke:#C82930;stroke-width:1.0;" width="6" x="715.8" y="725.0664"/><text fill="#000000" font-family="sans-serif" font-size="14" lengthAdjust="spacing" textLength="324.5088" x="727.8" y="732.3633">static SortedDictionary&lt;int, int&gt; wordCountByLength</text><rect fill="none" height="6" style="stroke:#C82930;stroke-width:1.0;" width="6" x="715.8" y="743.6875"/><text fill="#000000" font-family="sans-serif" font-size="14" lengthAdjust="spacing" textLength="329.9365" x="727.8" y="750.9844">static SortedDictionary&lt;char, int&gt; wordCountByLetter</text><line style="stroke:#181818;stroke-width:0.5;" x1="708.8" x2="1735.01" y1="758.498" y2="758.498"/><ellipse cx="718.8" cy="773.3086" fill="#84BE84" rx="3" ry="3" style="stroke:#038048;stroke-width:1.0;"/><text fill="#000000" font-family="sans-serif" font-size="14" lengthAdjust="spacing" textLength="126.041" x="727.8" y="777.6055">static void Initialize()</text><rect fill="#F24D5C" height="6" style="stroke:#C82930;stroke-width:1.0;" width="6" x="715.8" y="788.9297"/><text fill="#000000" font-family="sans-serif" font-size="14" lengthAdjust="spacing" textLength="202.2891" x="727.8" y="796.2266">static void ClearDataStructures()</text><rect fill="#F24D5C" height="6" style="stroke:#C82930;stroke-width:1.0;" width="6" x="715.8" y="807.5508"/><text fill="#000000" font-family="sans-serif" font-size="14" lengthAdjust="spacing" textLength="914.2793" x="727.8" y="814.8477">static void LoadWordsFromFile(SortedDictionary&lt;int, List&lt;string&gt;&gt; tempWordsByLength, SortedDictionary&lt;char, List&lt;string&gt;&gt; tempWordsByLetter)</text><rect fill="#F24D5C" height="6" style="stroke:#C82930;stroke-width:1.0;" width="6" x="715.8" y="826.1719"/><text fill="#000000" font-family="sans-serif" font-size="14" lengthAdjust="spacing" textLength="1002.21" x="727.8" y="833.4688">static void AddWordToStructures(string word, SortedDictionary&lt;int, List&lt;string&gt;&gt; tempWordsByLength, SortedDictionary&lt;char, List&lt;string&gt;&gt; tempWordsByLetter)</text><rect fill="#F24D5C" height="6" style="stroke:#C82930;stroke-width:1.0;" width="6" x="715.8" y="844.793"/><text fill="#000000" font-family="sans-serif" font-size="14" lengthAdjust="spacing" textLength="922.0586" x="727.8" y="852.0898">static void ConvertListsToArrays(SortedDictionary&lt;int, List&lt;string&gt;&gt; tempWordsByLength, SortedDictionary&lt;char, List&lt;string&gt;&gt; tempWordsByLetter)</text><rect fill="#F24D5C" height="6" style="stroke:#C82930;stroke-width:1.0;" width="6" x="715.8" y="863.4141"/><text fill="#000000" font-family="sans-serif" font-size="14" lengthAdjust="spacing" textLength="129.9238" x="727.8" y="870.7109">static void SortLists()</text><ellipse cx="718.8" cy="885.0352" fill="#84BE84" rx="3" ry="3" style="stroke:#038048;stroke-width:1.0;"/><text fill="#000000" font-family="sans-serif" font-size="14" lengthAdjust="spacing" textLength="199.9717" x="727.8" y="889.332">static bool Contains(string word)</text><rect fill="#F24D5C" height="6" style="stroke:#C82930;stroke-width:1.0;" width="6" x="715.8" y="900.6563"/><text fill="#000000" font-family="sans-serif" font-size="14" lengthAdjust="spacing" textLength="417.833" x="727.8" y="907.9531">static bool BinarySearch(string[] array, string word, int start, int end)</text><ellipse cx="718.8" cy="922.2773" fill="#84BE84" rx="3" ry="3" style="stroke:#038048;stroke-width:1.0;"/><text fill="#000000" font-family="sans-serif" font-size="14" lengthAdjust="spacing" textLength="318.2197" x="727.8" y="926.5742">static void QuickSort(string[] array, int start, int end)</text><rect fill="#F24D5C" height="6" style="stroke:#C82930;stroke-width:1.0;" width="6" x="715.8" y="937.8984"/><text fill="#000000" font-family="sans-serif" font-size="14" lengthAdjust="spacing" textLength="353.2471" x="727.8" y="945.1953">static int Partition(string[] array, int start, int end, int pivot)</text></g><!--class Player--><g id="elem_Player"><rect codeLine="100" fill="#F1F1F1" height="252.832" id="Player" rx="2.5" ry="2.5" style="stroke:#181818;stroke-width:0.5;" width="315.4404" x="1771.3" y="672.0137"/><ellipse cx="1904.9289" cy="688.0137" fill="#ADD1B2" rx="11" ry="11" style="stroke:#181818;stroke-width:1.0;"/><path d="M1907.6945,683.8887 Q1907.8508,683.6699 1908.0383,683.5605 Q1908.2258,683.4512 1908.4445,683.4512 Q1908.8195,683.4512 1909.0539,683.7168 Q1909.2883,683.9668 1909.2883,684.5762 L1909.2883,686.0293 Q1909.2883,686.6387 1909.0539,686.9043 Q1908.8195,687.1699 1908.4445,687.1699 Q1908.1008,687.1699 1907.8977,686.9668 Q1907.6945,686.7793 1907.5852,686.2637 Q1907.5383,685.9043 1907.3508,685.7168 Q1907.0227,685.3418 1906.4133,685.123 Q1905.8039,684.9043 1905.1789,684.9043 Q1904.4133,684.9043 1903.7727,685.2324 Q1903.1477,685.5605 1902.6477,686.3105 Q1902.1633,687.0605 1902.1633,688.0918 L1902.1633,689.1855 Q1902.1633,690.4199 1903.0539,691.248 Q1903.9445,692.0605 1905.5383,692.0605 Q1906.4758,692.0605 1907.132,691.8105 Q1907.5227,691.6543 1907.9445,691.2168 Q1908.2102,690.9512 1908.3508,690.873 Q1908.507,690.7949 1908.7102,690.7949 Q1909.0383,690.7949 1909.2883,691.0605 Q1909.5539,691.3105 1909.5539,691.6543 Q1909.5539,691.998 1909.2102,692.4043 Q1908.7102,692.9824 1907.9133,693.3105 Q1906.8352,693.7637 1905.5383,693.7637 Q1904.0227,693.7637 1902.8195,693.1387 Q1901.8352,692.6387 1901.1477,691.5762 Q1900.4602,690.498 1900.4602,689.2168 L1900.4602,688.0605 Q1900.4602,686.7324 1901.0695,685.5918 Q1901.6945,684.4355 1902.7883,683.8262 Q1903.882,683.2012 1905.1164,683.2012 Q1905.8508,683.2012 1906.4914,683.373 Q1907.1477,683.5293 1907.6945,683.8887 Z " fill="#000000"/><text fill="#000000" font-family="sans-serif" font-size="14" lengthAdjust="spacing" textLength="39.6826" x="1925.4289" y="693.8105">Player</text><line style="stroke:#181818;stroke-width:0.5;" x1="1772.3" x2="2085.7404" y1="704.0137" y2="704.0137"/><rect fill="none" height="6" style="stroke:#C82930;stroke-width:1.0;" width="6" x="1779.3" y="715.8242"/><text fill="#000000" font-family="sans-serif" font-size="14" lengthAdjust="spacing" textLength="73.1445" x="1791.3" y="723.1211">string name</text><rect fill="none" height="6" style="stroke:#C82930;stroke-width:1.0;" width="6" x="1779.3" y="734.4453"/><text fill="#000000" font-family="sans-serif" font-size="14" lengthAdjust="spacing" textLength="52.9102" x="1791.3" y="741.7422">int score</text><rect fill="none" height="6" style="stroke:#C82930;stroke-width:1.0;" width="6" x="1779.3" y="753.0664"/><text fill="#000000" font-family="sans-serif" font-size="14" lengthAdjust="spacing" textLength="214.7646" x="1791.3" y="760.3633">Dictionary&lt;string, int&gt; foundWords</text><ellipse cx="1782.3" cy="774.6875" fill="none" rx="3" ry="3" style="stroke:#038048;stroke-width:1.0;"/><text fill="#000000" font-family="sans-serif" font-size="14" lengthAdjust="spacing" textLength="119.8408" x="1791.3" y="778.9844">string Name { get; }</text><ellipse cx="1782.3" cy="793.3086" fill="none" rx="3" ry="3" style="stroke:#038048;stroke-width:1.0;"/><text fill="#000000" font-family="sans-serif" font-size="14" lengthAdjust="spacing" textLength="99.6201" x="1791.3" y="797.6055">int Score { get; }</text><ellipse cx="1782.3" cy="811.9297" fill="none" rx="3" ry="3" style="stroke:#038048;stroke-width:1.0;"/><text fill="#000000" font-family="sans-serif" font-size="14" lengthAdjust="spacing" textLength="263.7988" x="1791.3" y="816.2266">Dictionary&lt;string, int&gt; FoundWords { get; }</text><line style="stroke:#181818;stroke-width:0.5;" x1="1772.3" x2="2085.7404" y1="823.7402" y2="823.7402"/><ellipse cx="1782.3" cy="838.5508" fill="#84BE84" rx="3" ry="3" style="stroke:#038048;stroke-width:1.0;"/><text fill="#000000" font-family="sans-serif" font-size="14" lengthAdjust="spacing" textLength="122.1514" x="1791.3" y="842.8477">Player(string name)</text><ellipse cx="1782.3" cy="857.1719" fill="#84BE84" rx="3" ry="3" style="stroke:#038048;stroke-width:1.0;"/><text fill="#000000" font-family="sans-serif" font-size="14" lengthAdjust="spacing" textLength="163.4063" x="1791.3" y="861.4688">bool Contains(string word)</text><ellipse cx="1782.3" cy="875.793" fill="#84BE84" rx="3" ry="3" style="stroke:#038048;stroke-width:1.0;"/><text fill="#000000" font-family="sans-serif" font-size="14" lengthAdjust="spacing" textLength="165.7236" x="1791.3" y="880.0898">void AddWord(string word)</text><ellipse cx="1782.3" cy="894.4141" fill="#84BE84" rx="3" ry="3" style="stroke:#038048;stroke-width:1.0;"/><text fill="#000000" font-family="sans-serif" font-size="14" lengthAdjust="spacing" textLength="100.3584" x="1791.3" y="898.7109">string ToString()</text><rect fill="#F24D5C" height="6" style="stroke:#C82930;stroke-width:1.0;" width="6" x="1779.3" y="910.0352"/><text fill="#000000" font-family="sans-serif" font-size="14" lengthAdjust="spacing" textLength="289.4404" x="1791.3" y="917.332">static bool DoesPlayerNameExist(string name)</text></g><!--reverse link Game to Player--><g id="link_Game_Player"><path codeLine="114" d="M1376.1992,348.5276 C1488.9892,401.0276 1635.41,478.8237 1753.8,579.0137 C1785.61,605.9337 1815.75,639.3337 1841.76,671.8537 " fill="none" id="Game-backto-Player" style="stroke:#181818;stroke-width:1.0;"/><polygon fill="#181818" points="1365.32,343.4637,1369.0716,349.622,1376.1992,348.5276,1372.4476,342.3692,1365.32,343.4637" style="stroke:#181818;stroke-width:1.0;"/><text fill="#000000" font-family="sans-serif" font-size="13" lengthAdjust="spacing" textLength="7.23" x="1373.8139" y="343.6111">1</text><text fill="#000000" font-family="sans-serif" font-size="13" lengthAdjust="spacing" textLength="19.5127" x="1816.8793" y="660.6597">2..*</text></g><!--reverse link Game to Board--><g id="link_Game_Board"><path codeLine="115" d="M1067.5636,363.6315 C959.5936,421.7515 819.38,499.5037 690.8,579.0137 C684.78,582.7337 678.71,586.5237 672.61,590.3537 " fill="none" id="Game-backto-Board" style="stroke:#181818;stroke-width:1.0;"/><polygon fill="#181818" points="1078.13,357.9437,1070.9509,357.2655,1067.5636,363.6315,1074.7428,364.3097,1078.13,357.9437" style="stroke:#181818;stroke-width:1.0;"/><text fill="#000000" font-family="sans-serif" font-size="13" lengthAdjust="spacing" textLength="7.23" x="1063.0763" y="358.7144">1</text><text fill="#000000" font-family="sans-serif" font-size="13" lengthAdjust="spacing" textLength="7.23" x="679.7928" y="582.3069">1</text></g><!--link Language to Board--><g id="link_Language_Board"><path codeLine="116" d="M369.8,426.2937 C369.8,473.6537 369.8,521.4037 369.8,572.9937 " fill="none" id="Language-to-Board" style="stroke:#181818;stroke-width:1.0;stroke-dasharray:7.0,7.0;"/><polygon fill="#181818" points="369.8,578.9937,373.8,569.9937,369.8,573.9937,365.8,569.9937,369.8,578.9937" style="stroke:#181818;stroke-width:1.0;"/><text fill="#000000" font-family="sans-serif" font-size="13" lengthAdjust="spacing" textLength="7.23" x="362.6184" y="448.2569">1</text><text fill="#000000" font-family="sans-serif" font-size="13" lengthAdjust="spacing" textLength="7.23" x="362.6799" y="567.832">1</text></g><!--reverse link Game to CustomDictionary--><g id="link_Game_CustomDictionary"><path codeLine="117" d="M1221.8,531.0137 C1221.8,573.4637 1221.8,604.6637 1221.8,643.9737 " fill="none" id="Game-backto-CustomDictionary" style="stroke:#181818;stroke-width:1.0;"/><polygon fill="#181818" points="1221.8,519.0137,1217.8,525.0137,1221.8,531.0137,1225.8,525.0137,1221.8,519.0137" style="stroke:#181818;stroke-width:1.0;"/><text fill="#000000" font-family="sans-serif" font-size="13" lengthAdjust="spacing" textLength="7.23" x="1214.6819" y="541.1304">1</text><text fill="#000000" font-family="sans-serif" font-size="13" lengthAdjust="spacing" textLength="7.23" x="1214.62" y="632.6106">1</text></g><!--link Language to CustomDictionary--><g id="link_Language_CustomDictionary"><path codeLine="118" d="M555.99,394.6637 C676.69,467.6937 830.3665,560.6777 962.6065,640.6877 " fill="none" id="Language-to-CustomDictionary" style="stroke:#181818;stroke-width:1.0;stroke-dasharray:7.0,7.0;"/><polygon fill="#181818" points="967.74,643.7937,962.1104,635.7124,963.4621,641.2054,957.9691,642.5571,967.74,643.7937" style="stroke:#181818;stroke-width:1.0;"/><text fill="#000000" font-family="sans-serif" font-size="13" lengthAdjust="spacing" textLength="7.23" x="563.9916" y="396.1326">1</text><text fill="#000000" font-family="sans-serif" font-size="13" lengthAdjust="spacing" textLength="7.23" x="948.2649" y="632.9305">1</text></g><!--link Language to Die--><g id="link_Language_Die"><path codeLine="119" d="M183.46,408.3537 C130.08,455.0937 78.59,513.0137 49.8,579.0137 C10.79,668.4337 6,930.8437 49.8,1018.0137 C71.6,1061.3937 107.6992,1092.1042 146.9792,1116.4342 " fill="none" id="Language-to-Die" style="stroke:#181818;stroke-width:1.0;stroke-dasharray:7.0,7.0;"/><polygon fill="#181818" points="152.08,1119.5937,146.5351,1111.454,147.8293,1116.9608,142.3225,1118.2551,152.08,1119.5937" style="stroke:#181818;stroke-width:1.0;"/><text fill="#000000" font-family="sans-serif" font-size="13" lengthAdjust="spacing" textLength="7.23" x="168.4502" y="410.4001">1</text><text fill="#000000" font-family="sans-serif" font-size="13" lengthAdjust="spacing" textLength="7.23" x="137.0914" y="1112.1636">1</text></g><!--reverse link Board to Die--><g id="link_Board_Die"><path codeLine="120" d="M293.8198,1029.6593 C286.9498,1050.4793 284.04,1059.2637 277.96,1077.6837 " fill="none" id="Board-backto-Die" style="stroke:#181818;stroke-width:1.0;"/><polygon fill="#181818" points="297.58,1018.2637,291.9013,1022.7081,293.8198,1029.6593,299.4984,1025.2149,297.58,1018.2637" style="stroke:#181818;stroke-width:1.0;"/><text fill="#000000" font-family="sans-serif" font-size="13" lengthAdjust="spacing" textLength="7.23" x="288.1006" y="1039.7855">1</text><text fill="#000000" font-family="sans-serif" font-size="13" lengthAdjust="spacing" textLength="19.5127" x="260.5974" y="1066.6081">1..*</text></g><!--reverse link Player to WordCloud--><g id="link_Player_WordCloud"><path codeLine="121" d="M1896.5797,936.8166 C1879.2297,1010.7866 1861.33,1087.0337 1850.43,1133.4937 " fill="none" id="Player-backto-WordCloud" style="stroke:#181818;stroke-width:1.0;"/><polygon fill="#181818" points="1899.32,925.1337,1894.0555,930.0617,1896.5797,936.8166,1901.8442,931.8886,1899.32,925.1337" style="stroke:#181818;stroke-width:1.0;"/><text fill="#000000" font-family="sans-serif" font-size="13" lengthAdjust="spacing" textLength="7.23" x="1890.4073" y="946.9869">1</text><text fill="#000000" font-family="sans-serif" font-size="13" lengthAdjust="spacing" textLength="7.23" x="1844.2252" y="1122.3153">1</text></g><!--SRC=[pLZDR-8u5B_thx1woanffTdhhf0Ab14IxRA5cHwg7apYWZN6HhR3b1trVz_t79CFOjCWxM4uX2H-NtuVl_SSIJVCR6dAo42jLeAHNnS4VgcWnf0HFppZxvgaQwgVNyWha9kZrsJ73LyADeQrSkaA9IIFL6PgGxJx-rHRT7pVApxoYwoO_PEyrsYuj6Icu6f2gpl5C_AeX8WhCLPpkI8BDNStIR7sVb7RvbVmGMEVnbBBKpAtQlkJsdHDjeBkcIwVswHefisrNF0DYwmgIyK2I4nxVSgD_MlcTFIzBdmL5hHKL6Tp_cz0pzrcoR85UxF4f4epl6juegriLYeBkTTpE2_VKowJJssTRd4YkULKW57V9Xs8qE4ToAPKhdAwwa8wGATqr3oZ6gwMQTE1eN1Gd7B43GPi8Y7FyjHo9J-adMDiubHtCZlf7ozbp2KL7uZof4zAPqEXyhY3dYYt0_OAme3En7MZOLEbjb42dqz8KjpwT0xGBvKIP6AmOYOI2sCY8IOxAXAXe60jl0_KgWjqg5WF0D1U0GnwxhqKTHEflG8a-kHLvJ93Tvb85LI9aM0j6hZvE8VkAOX_-v3XspQZ5eZV_axJN6ic0MK3J4s3fZINwJeQZp4NmhdiYTlrK66MKWJJPAwqPPdRFC9m3w6bJrIfUGYUiC6u5Od09DDWxNVOO8ROFLPwo027qTut9utiU-HiBLUDx5WmOp4QYGVndt3V8ogt1rI7tcK0809MUeAXO5GUYuWd8r9E8VlkfCfNw-uy3ygECNMwSqna0LbdC8oumnUgzs6kfkyWs1P2RRfec3EgqtNRqnX5BZFc0rh55Rcmfh3fGu1ZSaUAcGTeGbDc8Shts3exAi2_p3zctHNU0e0fa0pOQ9bnoTd8o82pl3ssEH-qEsQPnFq-31D3kC4teN7YqBP2AEMr2KyoL5cWZOUhPkkce1cWg_DcLxPD0qzEiFlXJhZbcLPBkkG288nrmCAZRSNTFArj_CJ44TvA4neFxEOi6REc5q_OuARJhymdxs1VkMJlScfRFSVHLsRr7SVz56iT8shft4qM-Qb6_yXe1b3FGjcBjWwfI7C1DU46XZOaDFAt71Tg2NmLHFzgiAYmoVTIxsvKONg7w4iQxEd3t5YrgKG4Pt4NpPeQ47-G-_pY5GtsKoPNTjs1lKY90F-fsZfMNsxHzR6pjRVP6ygZrHRB0cnskcF6J1Kj1fsnLXkNEk4jriUZFh5iitsgUxeNszi9FdjYhhZDd5Nkj7ROGgDZ_1PMGc_TCMsHsopKhTPqRtuF_w4qPrRoVym50uuM5TD1SgWLGd6_PKrNZHmuTL4KXCaiDh3-a_Fq1vhP4dXAHkC430Suoz5T7KGKDrk-KpQ0FFwCqiIR4gfgRvrWnCxQknZc1GyHXQQa1OIDZnGFxaD4-2E8G-xGOioCSMb6YAj3BbmrIZ8-SuQ-huHdmS89kCkxDnoU0cq1huK4zrNcyiib-NnzJIx_kBdvVEcz65g7_q5rm2j7C7n_SzC_Nc_n7hUW4sBE88MJPx5Qd5ehXMupvQhFmhezPMUzUB_u3m00]--></g></svg>