<svg xmlns="http://www.w3.org/2000/svg" xmlns:xlink="http://www.w3.org/1999/xlink" contentStyleType="text/css" height="636px" preserveAspectRatio="none" style="width:929px;height:636px;background:#FFFFFF;" version="1.1" viewBox="0 0 929 636" width="929.6px" zoomAndPan="magnify"><defs/><g><!--cluster Boggle--><g id="cluster_Boggle"><path d="M11.888,4.8109 L50.6411,4.8109 A3,3 0 0 1 52.6411,6.8109 L58.2411,24.5078 L922.288,24.5078 A2,2 0 0 1 924.288,26.5078 L924.288,628.4109 A2,2 0 0 1 922.288,630.4109 L11.888,630.4109 A2,2 0 0 1 9.888,628.4109 L9.888,6.8109 A2,2 0 0 1 11.888,4.8109 " fill="none" style="stroke:#000000;stroke-width:1.2000000000000002;"/><line style="stroke:#000000;stroke-width:1.2000000000000002;" x1="9.888" x2="58.2411" y1="24.5078" y2="24.5078"/><text fill="#000000" font-family="sans-serif" font-size="11.2" font-weight="bold" lengthAdjust="spacing" textLength="37.9531" x="13.088" y="18.4969">Boggle</text></g><!--class Die--><g id="elem_Die"><rect codeLine="3" fill="#F1F1F1" height="112.8844" id="Die" rx="2" ry="2" style="stroke:#181818;stroke-width:0.4000000000000001;" width="139.0891" x="74.688" y="504.8109"/><ellipse cx="132.4298" cy="517.6109" fill="#ADD1B2" rx="8.8" ry="8.8" style="stroke:#181818;stroke-width:0.8000000000000002;"/><path d="M134.6423,514.3109 Q134.7673,514.1359 134.9173,514.0484 Q135.0673,513.9609 135.2423,513.9609 Q135.5423,513.9609 135.7298,514.1734 Q135.9173,514.3734 135.9173,514.8609 L135.9173,516.0234 Q135.9173,516.5109 135.7298,516.7234 Q135.5423,516.9359 135.2423,516.9359 Q134.9673,516.9359 134.8048,516.7734 Q134.6423,516.6234 134.5548,516.2109 Q134.5173,515.9234 134.3673,515.7734 Q134.1048,515.4734 133.6173,515.2984 Q133.1298,515.1234 132.6298,515.1234 Q132.0173,515.1234 131.5048,515.3859 Q131.0048,515.6484 130.6048,516.2484 Q130.2173,516.8484 130.2173,517.6734 L130.2173,518.5484 Q130.2173,519.5359 130.9298,520.1984 Q131.6423,520.8484 132.9173,520.8484 Q133.6673,520.8484 134.1923,520.6484 Q134.5048,520.5234 134.8423,520.1734 Q135.0548,519.9609 135.1673,519.8984 Q135.2923,519.8359 135.4548,519.8359 Q135.7173,519.8359 135.9173,520.0484 Q136.1298,520.2484 136.1298,520.5234 Q136.1298,520.7984 135.8548,521.1234 Q135.4548,521.5859 134.8173,521.8484 Q133.9548,522.2109 132.9173,522.2109 Q131.7048,522.2109 130.7423,521.7109 Q129.9548,521.3109 129.4048,520.4609 Q128.8548,519.5984 128.8548,518.5734 L128.8548,517.6484 Q128.8548,516.5859 129.3423,515.6734 Q129.8423,514.7484 130.7173,514.2609 Q131.5923,513.7609 132.5798,513.7609 Q133.1673,513.7609 133.6798,513.8984 Q134.2048,514.0234 134.6423,514.3109 Z " fill="#000000"/><text fill="#000000" font-family="sans-serif" font-size="11.2" lengthAdjust="spacing" textLength="16.8055" x="148.8298" y="522.2484">Die</text><line style="stroke:#181818;stroke-width:0.4000000000000001;" x1="75.488" x2="212.9771" y1="530.4109" y2="530.4109"/><rect fill="none" height="4.8" style="stroke:#C82930;stroke-width:0.8000000000000002;" width="4.8" x="81.088" y="539.8594"/><text fill="#000000" font-family="sans-serif" font-size="11.2" lengthAdjust="spacing" textLength="57.8922" x="90.688" y="545.6969">char[] faces</text><rect fill="none" height="4.8" style="stroke:#C82930;stroke-width:0.8000000000000002;" width="4.8" x="81.088" y="554.7563"/><text fill="#000000" font-family="sans-serif" font-size="11.2" lengthAdjust="spacing" textLength="80.9211" x="90.688" y="560.5938">char visibleFace</text><ellipse cx="83.488" cy="572.0531" fill="none" rx="2.4" ry="2.4" style="stroke:#038048;stroke-width:0.8000000000000002;"/><text fill="#000000" font-family="sans-serif" font-size="11.2" lengthAdjust="spacing" textLength="118.2891" x="90.688" y="575.4906">char VisibleFace { get; }</text><ellipse cx="83.488" cy="586.95" fill="none" rx="2.4" ry="2.4" style="stroke:#038048;stroke-width:0.8000000000000002;"/><text fill="#000000" font-family="sans-serif" font-size="11.2" lengthAdjust="spacing" textLength="81.5664" x="90.688" y="590.3875">int Points { get; }</text><line style="stroke:#181818;stroke-width:0.4000000000000001;" x1="75.488" x2="212.9771" y1="596.3984" y2="596.3984"/><ellipse cx="83.488" cy="608.2469" fill="#84BE84" rx="2.4" ry="2.4" style="stroke:#038048;stroke-width:0.8000000000000002;"/><text fill="#000000" font-family="sans-serif" font-size="11.2" lengthAdjust="spacing" textLength="107.6852" x="90.688" y="611.6844">Die(Random random)</text></g><!--class Game--><g id="elem_Game"><rect codeLine="11" fill="#F1F1F1" height="157.575" id="Game" rx="2" ry="2" style="stroke:#181818;stroke-width:0.4000000000000001;" width="200.093" x="409.088" y="49.2109"/><ellipse cx="490.4849" cy="62.0109" fill="#ADD1B2" rx="8.8" ry="8.8" style="stroke:#181818;stroke-width:0.8000000000000002;"/><path d="M492.6974,58.7109 Q492.8224,58.5359 492.9724,58.4484 Q493.1224,58.3609 493.2974,58.3609 Q493.5974,58.3609 493.7849,58.5734 Q493.9724,58.7734 493.9724,59.2609 L493.9724,60.4234 Q493.9724,60.9109 493.7849,61.1234 Q493.5974,61.3359 493.2974,61.3359 Q493.0224,61.3359 492.8599,61.1734 Q492.6974,61.0234 492.6099,60.6109 Q492.5724,60.3234 492.4224,60.1734 Q492.1599,59.8734 491.6724,59.6984 Q491.1849,59.5234 490.6849,59.5234 Q490.0724,59.5234 489.5599,59.7859 Q489.0599,60.0484 488.6599,60.6484 Q488.2724,61.2484 488.2724,62.0734 L488.2724,62.9484 Q488.2724,63.9359 488.9849,64.5984 Q489.6974,65.2484 490.9724,65.2484 Q491.7224,65.2484 492.2474,65.0484 Q492.5599,64.9234 492.8974,64.5734 Q493.1099,64.3609 493.2224,64.2984 Q493.3474,64.2359 493.5099,64.2359 Q493.7724,64.2359 493.9724,64.4484 Q494.1849,64.6484 494.1849,64.9234 Q494.1849,65.1984 493.9099,65.5234 Q493.5099,65.9859 492.8724,66.2484 Q492.0099,66.6109 490.9724,66.6109 Q489.7599,66.6109 488.7974,66.1109 Q488.0099,65.7109 487.4599,64.8609 Q486.9099,63.9984 486.9099,62.9734 L486.9099,62.0484 Q486.9099,60.9859 487.3974,60.0734 Q487.8974,59.1484 488.7724,58.6609 Q489.6474,58.1609 490.6349,58.1609 Q491.2224,58.1609 491.7349,58.2984 Q492.2599,58.4234 492.6974,58.7109 Z " fill="#000000"/><text fill="#000000" font-family="sans-serif" font-size="11.2" lengthAdjust="spacing" textLength="30.4992" x="506.8849" y="66.6484">Game</text><line style="stroke:#181818;stroke-width:0.4000000000000001;" x1="409.888" x2="608.381" y1="74.8109" y2="74.8109"/><rect fill="none" height="4.8" style="stroke:#C82930;stroke-width:0.8000000000000002;" width="4.8" x="415.488" y="84.2594"/><text fill="#000000" font-family="sans-serif" font-size="11.2" lengthAdjust="spacing" textLength="167.4641" x="425.088" y="90.0969">static Stopwatch playerStopwatch</text><rect fill="none" height="4.8" style="stroke:#C82930;stroke-width:0.8000000000000002;" width="4.8" x="415.488" y="99.1563"/><text fill="#000000" font-family="sans-serif" font-size="11.2" lengthAdjust="spacing" textLength="88.3805" x="425.088" y="104.9938">static int turnTime</text><rect fill="none" height="4.8" style="stroke:#C82930;stroke-width:0.8000000000000002;" width="4.8" x="415.488" y="114.0531"/><text fill="#000000" font-family="sans-serif" font-size="11.2" lengthAdjust="spacing" textLength="93.9914" x="425.088" y="119.8906">static int totalTurns</text><rect fill="none" height="4.8" style="stroke:#C82930;stroke-width:0.8000000000000002;" width="4.8" x="415.488" y="128.95"/><text fill="#000000" font-family="sans-serif" font-size="11.2" lengthAdjust="spacing" textLength="142.5539" x="425.088" y="134.7875">static List&lt;Player&gt; playerList</text><rect fill="none" height="4.8" style="stroke:#C82930;stroke-width:0.8000000000000002;" width="4.8" x="415.488" y="143.8469"/><text fill="#000000" font-family="sans-serif" font-size="11.2" lengthAdjust="spacing" textLength="94.6258" x="425.088" y="149.6844">static int boardSize</text><rect fill="none" height="4.8" style="stroke:#C82930;stroke-width:0.8000000000000002;" width="4.8" x="415.488" y="158.7438"/><text fill="#000000" font-family="sans-serif" font-size="11.2" lengthAdjust="spacing" textLength="138.8023" x="425.088" y="164.5813">static EmbedText scoreText</text><ellipse cx="417.888" cy="176.0406" fill="none" rx="2.4" ry="2.4" style="stroke:#038048;stroke-width:0.8000000000000002;"/><text fill="#000000" font-family="sans-serif" font-size="11.2" lengthAdjust="spacing" textLength="179.293" x="425.088" y="179.4781">static List&lt;Player&gt; PlayerList { get; }</text><line style="stroke:#181818;stroke-width:0.4000000000000001;" x1="409.888" x2="608.381" y1="185.4891" y2="185.4891"/><ellipse cx="417.888" cy="197.3375" fill="#84BE84" rx="2.4" ry="2.4" style="stroke:#038048;stroke-width:0.8000000000000002;"/><text fill="#000000" font-family="sans-serif" font-size="11.2" lengthAdjust="spacing" textLength="84.6453" x="425.088" y="200.775">static void Main()</text></g><!--class Board--><g id="elem_Board"><rect codeLine="22" fill="#F1F1F1" height="172.4719" id="Board" rx="2" ry="2" style="stroke:#181818;stroke-width:0.4000000000000001;" width="285.9633" x="52.688" y="276.8109"/><ellipse cx="177.3263" cy="289.6109" fill="#ADD1B2" rx="8.8" ry="8.8" style="stroke:#181818;stroke-width:0.8000000000000002;"/><path d="M179.5388,286.3109 Q179.6638,286.1359 179.8138,286.0484 Q179.9638,285.9609 180.1388,285.9609 Q180.4388,285.9609 180.6263,286.1734 Q180.8138,286.3734 180.8138,286.8609 L180.8138,288.0234 Q180.8138,288.5109 180.6263,288.7234 Q180.4388,288.9359 180.1388,288.9359 Q179.8638,288.9359 179.7013,288.7734 Q179.5388,288.6234 179.4513,288.2109 Q179.4138,287.9234 179.2638,287.7734 Q179.0013,287.4734 178.5138,287.2984 Q178.0263,287.1234 177.5263,287.1234 Q176.9138,287.1234 176.4013,287.3859 Q175.9013,287.6484 175.5013,288.2484 Q175.1138,288.8484 175.1138,289.6734 L175.1138,290.5484 Q175.1138,291.5359 175.8263,292.1984 Q176.5388,292.8484 177.8138,292.8484 Q178.5638,292.8484 179.0888,292.6484 Q179.4013,292.5234 179.7388,292.1734 Q179.9513,291.9609 180.0638,291.8984 Q180.1888,291.8359 180.3513,291.8359 Q180.6138,291.8359 180.8138,292.0484 Q181.0263,292.2484 181.0263,292.5234 Q181.0263,292.7984 180.7513,293.1234 Q180.3513,293.5859 179.7138,293.8484 Q178.8513,294.2109 177.8138,294.2109 Q176.6013,294.2109 175.6388,293.7109 Q174.8513,293.3109 174.3013,292.4609 Q173.7513,291.5984 173.7513,290.5734 L173.7513,289.6484 Q173.7513,288.5859 174.2388,287.6734 Q174.7388,286.7484 175.6138,286.2609 Q176.4888,285.7609 177.4763,285.7609 Q178.0638,285.7609 178.5763,285.8984 Q179.1013,286.0234 179.5388,286.3109 Z " fill="#000000"/><text fill="#000000" font-family="sans-serif" font-size="11.2" lengthAdjust="spacing" textLength="29.8867" x="193.7263" y="294.2484">Board</text><line style="stroke:#181818;stroke-width:0.4000000000000001;" x1="53.488" x2="337.8513" y1="302.4109" y2="302.4109"/><rect fill="none" height="4.8" style="stroke:#C82930;stroke-width:0.8000000000000002;" width="4.8" x="59.088" y="311.8594"/><text fill="#000000" font-family="sans-serif" font-size="11.2" lengthAdjust="spacing" textLength="78.4273" x="68.688" y="317.6969">static Random r</text><rect fill="none" height="4.8" style="stroke:#C82930;stroke-width:0.8000000000000002;" width="4.8" x="59.088" y="326.7563"/><text fill="#000000" font-family="sans-serif" font-size="11.2" lengthAdjust="spacing" textLength="87.15" x="68.688" y="332.5938">static Die[,] board</text><rect fill="none" height="4.8" style="stroke:#C82930;stroke-width:0.8000000000000002;" width="4.8" x="59.088" y="341.6531"/><text fill="#000000" font-family="sans-serif" font-size="11.2" lengthAdjust="spacing" textLength="150.6477" x="68.688" y="347.4906">static List&lt;string&gt; foundWords</text><line style="stroke:#181818;stroke-width:0.4000000000000001;" x1="53.488" x2="337.8513" y1="353.5016" y2="353.5016"/><ellipse cx="61.488" cy="365.35" fill="#84BE84" rx="2.4" ry="2.4" style="stroke:#038048;stroke-width:0.8000000000000002;"/><text fill="#000000" font-family="sans-serif" font-size="11.2" lengthAdjust="spacing" textLength="135.6906" x="68.688" y="368.7875">static void Initialize(int size)</text><ellipse cx="61.488" cy="380.2469" fill="#84BE84" rx="2.4" ry="2.4" style="stroke:#038048;stroke-width:0.8000000000000002;"/><text fill="#000000" font-family="sans-serif" font-size="11.2" lengthAdjust="spacing" textLength="97.1141" x="68.688" y="383.6844">static void Launch()</text><ellipse cx="61.488" cy="395.1438" fill="#84BE84" rx="2.4" ry="2.4" style="stroke:#038048;stroke-width:0.8000000000000002;"/><text fill="#000000" font-family="sans-serif" font-size="11.2" lengthAdjust="spacing" textLength="265.1633" x="68.688" y="398.5813">static bool TestWord(string word, out string message)</text><ellipse cx="61.488" cy="410.0406" fill="#84BE84" rx="2.4" ry="2.4" style="stroke:#038048;stroke-width:0.8000000000000002;"/><text fill="#000000" font-family="sans-serif" font-size="11.2" lengthAdjust="spacing" textLength="159.9773" x="68.688" y="413.4781">static bool Contains(string word)</text><ellipse cx="61.488" cy="424.9375" fill="#84BE84" rx="2.4" ry="2.4" style="stroke:#038048;stroke-width:0.8000000000000002;"/><text fill="#000000" font-family="sans-serif" font-size="11.2" lengthAdjust="spacing" textLength="105.8094" x="68.688" y="428.375">static string toString()</text><ellipse cx="61.488" cy="439.8344" fill="#84BE84" rx="2.4" ry="2.4" style="stroke:#038048;stroke-width:0.8000000000000002;"/><text fill="#000000" font-family="sans-serif" font-size="11.2" lengthAdjust="spacing" textLength="177.4063" x="68.688" y="443.2719">static List&lt;List&lt;char&gt;&gt; ToCharList()</text></g><!--class Language--><g id="elem_Language"><rect codeLine="34" fill="#F1F1F1" height="187.3688" id="Language" rx="2" ry="2" style="stroke:#181818;stroke-width:0.4000000000000001;" width="297.8195" x="46.688" y="34.4109"/><ellipse cx="167.2821" cy="47.2109" fill="#ADD1B2" rx="8.8" ry="8.8" style="stroke:#181818;stroke-width:0.8000000000000002;"/><path d="M169.4946,43.9109 Q169.6196,43.7359 169.7696,43.6484 Q169.9196,43.5609 170.0946,43.5609 Q170.3946,43.5609 170.5821,43.7734 Q170.7696,43.9734 170.7696,44.4609 L170.7696,45.6234 Q170.7696,46.1109 170.5821,46.3234 Q170.3946,46.5359 170.0946,46.5359 Q169.8196,46.5359 169.6571,46.3734 Q169.4946,46.2234 169.4071,45.8109 Q169.3696,45.5234 169.2196,45.3734 Q168.9571,45.0734 168.4696,44.8984 Q167.9821,44.7234 167.4821,44.7234 Q166.8696,44.7234 166.3571,44.9859 Q165.8571,45.2484 165.4571,45.8484 Q165.0696,46.4484 165.0696,47.2734 L165.0696,48.1484 Q165.0696,49.1359 165.7821,49.7984 Q166.4946,50.4484 167.7696,50.4484 Q168.5196,50.4484 169.0446,50.2484 Q169.3571,50.1234 169.6946,49.7734 Q169.9071,49.5609 170.0196,49.4984 Q170.1446,49.4359 170.3071,49.4359 Q170.5696,49.4359 170.7696,49.6484 Q170.9821,49.8484 170.9821,50.1234 Q170.9821,50.3984 170.7071,50.7234 Q170.3071,51.1859 169.6696,51.4484 Q168.8071,51.8109 167.7696,51.8109 Q166.5571,51.8109 165.5946,51.3109 Q164.8071,50.9109 164.2571,50.0609 Q163.7071,49.1984 163.7071,48.1734 L163.7071,47.2484 Q163.7071,46.1859 164.1946,45.2734 Q164.6946,44.3484 165.5696,43.8609 Q166.4446,43.3609 167.4321,43.3609 Q168.0196,43.3609 168.5321,43.4984 Q169.0571,43.6234 169.4946,43.9109 Z " fill="#000000"/><text fill="#000000" font-family="sans-serif" font-size="11.2" lengthAdjust="spacing" textLength="49.8313" x="183.6821" y="51.8484">Language</text><line style="stroke:#181818;stroke-width:0.4000000000000001;" x1="47.488" x2="343.7075" y1="60.0109" y2="60.0109"/><rect fill="none" height="4.8" style="stroke:#C82930;stroke-width:0.8000000000000002;" width="4.8" x="53.088" y="69.4594"/><text fill="#000000" font-family="sans-serif" font-size="11.2" lengthAdjust="spacing" textLength="132.6172" x="62.688" y="75.2969">static string languageCode</text><rect fill="none" height="4.8" style="stroke:#C82930;stroke-width:0.8000000000000002;" width="4.8" x="53.088" y="84.3563"/><text fill="#000000" font-family="sans-serif" font-size="11.2" lengthAdjust="spacing" textLength="211.668" x="62.688" y="90.1938">static SortedList&lt;char, int&gt; pointsPerLetter</text><rect fill="none" height="4.8" style="stroke:#C82930;stroke-width:0.8000000000000002;" width="4.8" x="53.088" y="99.2531"/><text fill="#000000" font-family="sans-serif" font-size="11.2" lengthAdjust="spacing" textLength="266.4266" x="62.688" y="105.0906">static SortedList&lt;char, int&gt; maxOccurrencesPerLetter</text><rect fill="none" height="4.8" style="stroke:#C82930;stroke-width:0.8000000000000002;" width="4.8" x="53.088" y="114.15"/><text fill="#000000" font-family="sans-serif" font-size="11.2" lengthAdjust="spacing" textLength="146.2836" x="62.688" y="119.9875">static char[] letterProbabilities</text><ellipse cx="55.488" cy="131.4469" fill="none" rx="2.4" ry="2.4" style="stroke:#038048;stroke-width:0.8000000000000002;"/><text fill="#000000" font-family="sans-serif" font-size="11.2" lengthAdjust="spacing" textLength="171.8555" x="62.688" y="134.8844">static string LanguageCode { get; }</text><ellipse cx="55.488" cy="146.3438" fill="none" rx="2.4" ry="2.4" style="stroke:#038048;stroke-width:0.8000000000000002;"/><text fill="#000000" font-family="sans-serif" font-size="11.2" lengthAdjust="spacing" textLength="277.0195" x="62.688" y="149.7813">static SortedList&lt;char, int&gt; MaxOccurrences { get; set; }</text><ellipse cx="55.488" cy="161.2406" fill="none" rx="2.4" ry="2.4" style="stroke:#038048;stroke-width:0.8000000000000002;"/><text fill="#000000" font-family="sans-serif" font-size="11.2" lengthAdjust="spacing" textLength="248.407" x="62.688" y="164.6781">static SortedList&lt;char, int&gt; PointsPerLetter { get; }</text><line style="stroke:#181818;stroke-width:0.4000000000000001;" x1="47.488" x2="343.7075" y1="170.6891" y2="170.6891"/><ellipse cx="55.488" cy="182.5375" fill="#84BE84" rx="2.4" ry="2.4" style="stroke:#038048;stroke-width:0.8000000000000002;"/><text fill="#000000" font-family="sans-serif" font-size="11.2" lengthAdjust="spacing" textLength="177.4227" x="62.688" y="185.975">static void Initialize(string language)</text><ellipse cx="55.488" cy="197.4344" fill="#84BE84" rx="2.4" ry="2.4" style="stroke:#038048;stroke-width:0.8000000000000002;"/><text fill="#000000" font-family="sans-serif" font-size="11.2" lengthAdjust="spacing" textLength="239.657" x="62.688" y="200.8719">static char GetLetterByProbability(int probability)</text><ellipse cx="55.488" cy="212.3313" fill="#84BE84" rx="2.4" ry="2.4" style="stroke:#038048;stroke-width:0.8000000000000002;"/><text fill="#000000" font-family="sans-serif" font-size="11.2" lengthAdjust="spacing" textLength="182.3773" x="62.688" y="215.7688">static int CalculateScore(string word)</text></g><!--class WordCloud--><g id="elem_WordCloud"><rect codeLine="47" fill="#F1F1F1" height="53.2969" id="WordCloud" rx="2" ry="2" style="stroke:#181818;stroke-width:0.4000000000000001;" width="389.9297" x="521.488" y="534.4109"/><ellipse cx="685.0419" cy="547.2109" fill="#ADD1B2" rx="8.8" ry="8.8" style="stroke:#181818;stroke-width:0.8000000000000002;"/><path d="M687.2544,543.9109 Q687.3794,543.7359 687.5294,543.6484 Q687.6794,543.5609 687.8544,543.5609 Q688.1544,543.5609 688.3419,543.7734 Q688.5294,543.9734 688.5294,544.4609 L688.5294,545.6234 Q688.5294,546.1109 688.3419,546.3234 Q688.1544,546.5359 687.8544,546.5359 Q687.5794,546.5359 687.4169,546.3734 Q687.2544,546.2234 687.1669,545.8109 Q687.1294,545.5234 686.9794,545.3734 Q686.7169,545.0734 686.2294,544.8984 Q685.7419,544.7234 685.2419,544.7234 Q684.6294,544.7234 684.1169,544.9859 Q683.6169,545.2484 683.2169,545.8484 Q682.8294,546.4484 682.8294,547.2734 L682.8294,548.1484 Q682.8294,549.1359 683.5419,549.7984 Q684.2544,550.4484 685.5294,550.4484 Q686.2794,550.4484 686.8044,550.2484 Q687.1169,550.1234 687.4544,549.7734 Q687.6669,549.5609 687.7794,549.4984 Q687.9044,549.4359 688.0669,549.4359 Q688.3294,549.4359 688.5294,549.6484 Q688.7419,549.8484 688.7419,550.1234 Q688.7419,550.3984 688.4669,550.7234 Q688.0669,551.1859 687.4294,551.4484 Q686.5669,551.8109 685.5294,551.8109 Q684.3169,551.8109 683.3544,551.3109 Q682.5669,550.9109 682.0169,550.0609 Q681.4669,549.1984 681.4669,548.1734 L681.4669,547.2484 Q681.4669,546.1859 681.9544,545.2734 Q682.4544,544.3484 683.3294,543.8609 Q684.2044,543.3609 685.1919,543.3609 Q685.7794,543.3609 686.2919,543.4984 Q686.8169,543.6234 687.2544,543.9109 Z " fill="#000000"/><text fill="#000000" font-family="sans-serif" font-size="11.2" lengthAdjust="spacing" textLength="56.0219" x="701.4419" y="551.8484">WordCloud</text><line style="stroke:#181818;stroke-width:0.4000000000000001;" x1="522.288" x2="910.6177" y1="560.0109" y2="560.0109"/><line style="stroke:#181818;stroke-width:0.4000000000000001;" x1="522.288" x2="910.6177" y1="566.4109" y2="566.4109"/><ellipse cx="530.288" cy="578.2594" fill="#84BE84" rx="2.4" ry="2.4" style="stroke:#038048;stroke-width:0.8000000000000002;"/><text fill="#000000" font-family="sans-serif" font-size="11.2" lengthAdjust="spacing" textLength="369.1297" x="537.488" y="581.6969">static void GenerateWordCloud(Dictionary&lt;string, int&gt; words, string name)</text></g><!--class CustomDictionary--><g id="elem_CustomDictionary"><rect codeLine="51" fill="#F1F1F1" height="142.6781" id="CustomDictionary" rx="2" ry="2" style="stroke:#181818;stroke-width:0.4000000000000001;" width="284.7492" x="366.688" y="292.0109"/><ellipse cx="461.4724" cy="304.8109" fill="#ADD1B2" rx="8.8" ry="8.8" style="stroke:#181818;stroke-width:0.8000000000000002;"/><path d="M463.6849,301.5109 Q463.8099,301.3359 463.9599,301.2484 Q464.1099,301.1609 464.2849,301.1609 Q464.5849,301.1609 464.7724,301.3734 Q464.9599,301.5734 464.9599,302.0609 L464.9599,303.2234 Q464.9599,303.7109 464.7724,303.9234 Q464.5849,304.1359 464.2849,304.1359 Q464.0099,304.1359 463.8474,303.9734 Q463.6849,303.8234 463.5974,303.4109 Q463.5599,303.1234 463.4099,302.9734 Q463.1474,302.6734 462.6599,302.4984 Q462.1724,302.3234 461.6724,302.3234 Q461.0599,302.3234 460.5474,302.5859 Q460.0474,302.8484 459.6474,303.4484 Q459.2599,304.0484 459.2599,304.8734 L459.2599,305.7484 Q459.2599,306.7359 459.9724,307.3984 Q460.6849,308.0484 461.9599,308.0484 Q462.7099,308.0484 463.2349,307.8484 Q463.5474,307.7234 463.8849,307.3734 Q464.0974,307.1609 464.2099,307.0984 Q464.3349,307.0359 464.4974,307.0359 Q464.7599,307.0359 464.9599,307.2484 Q465.1724,307.4484 465.1724,307.7234 Q465.1724,307.9984 464.8974,308.3234 Q464.4974,308.7859 463.8599,309.0484 Q462.9974,309.4109 461.9599,309.4109 Q460.7474,309.4109 459.7849,308.9109 Q458.9974,308.5109 458.4474,307.6609 Q457.8974,306.7984 457.8974,305.7734 L457.8974,304.8484 Q457.8974,303.7859 458.3849,302.8734 Q458.8849,301.9484 459.7599,301.4609 Q460.6349,300.9609 461.6224,300.9609 Q462.2099,300.9609 462.7224,301.0984 Q463.2474,301.2234 463.6849,301.5109 Z " fill="#000000"/><text fill="#000000" font-family="sans-serif" font-size="11.2" lengthAdjust="spacing" textLength="88.3805" x="477.8724" y="309.4484">CustomDictionary</text><line style="stroke:#181818;stroke-width:0.4000000000000001;" x1="367.488" x2="650.6372" y1="317.6109" y2="317.6109"/><rect fill="none" height="4.8" style="stroke:#C82930;stroke-width:0.8000000000000002;" width="4.8" x="373.088" y="327.0594"/><text fill="#000000" font-family="sans-serif" font-size="11.2" lengthAdjust="spacing" textLength="257.1023" x="382.688" y="332.8969">static SortedDictionary&lt;int, string[]&gt; wordsByLength</text><rect fill="none" height="4.8" style="stroke:#C82930;stroke-width:0.8000000000000002;" width="4.8" x="373.088" y="341.9563"/><text fill="#000000" font-family="sans-serif" font-size="11.2" lengthAdjust="spacing" textLength="261.4445" x="382.688" y="347.7938">static SortedDictionary&lt;char, string[]&gt; wordsByLetter</text><rect fill="none" height="4.8" style="stroke:#C82930;stroke-width:0.8000000000000002;" width="4.8" x="373.088" y="356.8531"/><text fill="#000000" font-family="sans-serif" font-size="11.2" lengthAdjust="spacing" textLength="259.607" x="382.688" y="362.6906">static SortedDictionary&lt;int, int&gt; wordCountByLength</text><rect fill="none" height="4.8" style="stroke:#C82930;stroke-width:0.8000000000000002;" width="4.8" x="373.088" y="371.75"/><text fill="#000000" font-family="sans-serif" font-size="11.2" lengthAdjust="spacing" textLength="263.9492" x="382.688" y="377.5875">static SortedDictionary&lt;char, int&gt; wordCountByLetter</text><line style="stroke:#181818;stroke-width:0.4000000000000001;" x1="367.488" x2="650.6372" y1="383.5984" y2="383.5984"/><ellipse cx="375.488" cy="395.4469" fill="#84BE84" rx="2.4" ry="2.4" style="stroke:#038048;stroke-width:0.8000000000000002;"/><text fill="#000000" font-family="sans-serif" font-size="11.2" lengthAdjust="spacing" textLength="100.8328" x="382.688" y="398.8844">static void Initialize()</text><ellipse cx="375.488" cy="410.3438" fill="#84BE84" rx="2.4" ry="2.4" style="stroke:#038048;stroke-width:0.8000000000000002;"/><text fill="#000000" font-family="sans-serif" font-size="11.2" lengthAdjust="spacing" textLength="159.9773" x="382.688" y="413.7813">static bool Contains(string word)</text><ellipse cx="375.488" cy="425.2406" fill="#84BE84" rx="2.4" ry="2.4" style="stroke:#038048;stroke-width:0.8000000000000002;"/><text fill="#000000" font-family="sans-serif" font-size="11.2" lengthAdjust="spacing" textLength="254.5758" x="382.688" y="428.6781">static void QuickSort(string[] array, int start, int end)</text></g><!--class Player--><g id="elem_Player"><rect codeLine="61" fill="#F1F1F1" height="187.3688" id="Player" rx="2" ry="2" style="stroke:#181818;stroke-width:0.4000000000000001;" width="231.8391" x="679.488" y="269.6109"/><ellipse cx="776.1345" cy="282.4109" fill="#ADD1B2" rx="8.8" ry="8.8" style="stroke:#181818;stroke-width:0.8000000000000002;"/><path d="M778.347,279.1109 Q778.472,278.9359 778.622,278.8484 Q778.772,278.7609 778.947,278.7609 Q779.247,278.7609 779.4345,278.9734 Q779.622,279.1734 779.622,279.6609 L779.622,280.8234 Q779.622,281.3109 779.4345,281.5234 Q779.247,281.7359 778.947,281.7359 Q778.672,281.7359 778.5095,281.5734 Q778.347,281.4234 778.2595,281.0109 Q778.222,280.7234 778.072,280.5734 Q777.8095,280.2734 777.322,280.0984 Q776.8345,279.9234 776.3345,279.9234 Q775.722,279.9234 775.2095,280.1859 Q774.7095,280.4484 774.3095,281.0484 Q773.922,281.6484 773.922,282.4734 L773.922,283.3484 Q773.922,284.3359 774.6345,284.9984 Q775.347,285.6484 776.622,285.6484 Q777.372,285.6484 777.897,285.4484 Q778.2095,285.3234 778.547,284.9734 Q778.7595,284.7609 778.872,284.6984 Q778.997,284.6359 779.1595,284.6359 Q779.422,284.6359 779.622,284.8484 Q779.8345,285.0484 779.8345,285.3234 Q779.8345,285.5984 779.5595,285.9234 Q779.1595,286.3859 778.522,286.6484 Q777.6595,287.0109 776.622,287.0109 Q775.4095,287.0109 774.447,286.5109 Q773.6595,286.1109 773.1095,285.2609 Q772.5595,284.3984 772.5595,283.3734 L772.5595,282.4484 Q772.5595,281.3859 773.047,280.4734 Q773.547,279.5484 774.422,279.0609 Q775.297,278.5609 776.2845,278.5609 Q776.872,278.5609 777.3845,278.6984 Q777.9095,278.8234 778.347,279.1109 Z " fill="#000000"/><text fill="#000000" font-family="sans-serif" font-size="11.2" lengthAdjust="spacing" textLength="31.7461" x="792.5345" y="287.0484">Player</text><line style="stroke:#181818;stroke-width:0.4000000000000001;" x1="680.288" x2="910.5271" y1="295.2109" y2="295.2109"/><rect fill="none" height="4.8" style="stroke:#C82930;stroke-width:0.8000000000000002;" width="4.8" x="685.888" y="304.6594"/><text fill="#000000" font-family="sans-serif" font-size="11.2" lengthAdjust="spacing" textLength="58.5156" x="695.488" y="310.4969">string name</text><rect fill="none" height="4.8" style="stroke:#C82930;stroke-width:0.8000000000000002;" width="4.8" x="685.888" y="319.5563"/><text fill="#000000" font-family="sans-serif" font-size="11.2" lengthAdjust="spacing" textLength="42.3281" x="695.488" y="325.3938">int score</text><rect fill="none" height="4.8" style="stroke:#C82930;stroke-width:0.8000000000000002;" width="4.8" x="685.888" y="334.4531"/><text fill="#000000" font-family="sans-serif" font-size="11.2" lengthAdjust="spacing" textLength="171.8117" x="695.488" y="340.2906">Dictionary&lt;string, int&gt; foundWords</text><ellipse cx="688.288" cy="351.75" fill="none" rx="2.4" ry="2.4" style="stroke:#038048;stroke-width:0.8000000000000002;"/><text fill="#000000" font-family="sans-serif" font-size="11.2" lengthAdjust="spacing" textLength="95.8727" x="695.488" y="355.1875">string Name { get; }</text><ellipse cx="688.288" cy="366.6469" fill="none" rx="2.4" ry="2.4" style="stroke:#038048;stroke-width:0.8000000000000002;"/><text fill="#000000" font-family="sans-serif" font-size="11.2" lengthAdjust="spacing" textLength="79.6961" x="695.488" y="370.0844">int Score { get; }</text><ellipse cx="688.288" cy="381.5438" fill="none" rx="2.4" ry="2.4" style="stroke:#038048;stroke-width:0.8000000000000002;"/><text fill="#000000" font-family="sans-serif" font-size="11.2" lengthAdjust="spacing" textLength="211.0391" x="695.488" y="384.9813">Dictionary&lt;string, int&gt; FoundWords { get; }</text><line style="stroke:#181818;stroke-width:0.4000000000000001;" x1="680.288" x2="910.5271" y1="390.9922" y2="390.9922"/><ellipse cx="688.288" cy="402.8406" fill="#84BE84" rx="2.4" ry="2.4" style="stroke:#038048;stroke-width:0.8000000000000002;"/><text fill="#000000" font-family="sans-serif" font-size="11.2" lengthAdjust="spacing" textLength="97.7211" x="695.488" y="406.2781">Player(string name)</text><ellipse cx="688.288" cy="417.7375" fill="#84BE84" rx="2.4" ry="2.4" style="stroke:#038048;stroke-width:0.8000000000000002;"/><text fill="#000000" font-family="sans-serif" font-size="11.2" lengthAdjust="spacing" textLength="130.725" x="695.488" y="421.175">bool Contains(string word)</text><ellipse cx="688.288" cy="432.6344" fill="#84BE84" rx="2.4" ry="2.4" style="stroke:#038048;stroke-width:0.8000000000000002;"/><text fill="#000000" font-family="sans-serif" font-size="11.2" lengthAdjust="spacing" textLength="132.5789" x="695.488" y="436.0719">void AddWord(string word)</text><ellipse cx="688.288" cy="447.5313" fill="#84BE84" rx="2.4" ry="2.4" style="stroke:#038048;stroke-width:0.8000000000000002;"/><text fill="#000000" font-family="sans-serif" font-size="11.2" lengthAdjust="spacing" textLength="80.2867" x="695.488" y="450.9688">string ToString()</text></g><!--reverse link Game to Player--><g id="link_Game_Player"><path codeLine="74" d="M612.2945,212.9916 C636.9265,233.0876 656.24,248.8349 681.688,269.5949 " fill="none" id="Game-backto-Player" style="stroke:#181818;stroke-width:0.8000000000000002;"/><polygon fill="#181818" points="604.856,206.9229,606.5523,212.4368,612.2945,212.9916,610.5981,207.4778,604.856,206.9229" style="stroke:#181818;stroke-width:0.8000000000000002;"/><text fill="#000000" font-family="sans-serif" font-size="10.4" lengthAdjust="spacing" textLength="5.784" x="606.0867" y="224.4495">1</text><text fill="#000000" font-family="sans-serif" font-size="10.4" lengthAdjust="spacing" textLength="15.6102" x="658.3506" y="260.473">2..*</text></g><!--reverse link Game to Board--><g id="link_Game_Board"><path codeLine="75" d="M401.3014,209.0981 C369.9334,232.4661 342.76,252.7069 310.448,276.7789 " fill="none" id="Game-backto-Board" style="stroke:#181818;stroke-width:0.8000000000000002;"/><polygon fill="#181818" points="409,203.3629,403.239,203.6643,401.3014,209.0981,407.0624,208.7967,409,203.3629" style="stroke:#181818;stroke-width:0.8000000000000002;"/><text fill="#000000" font-family="sans-serif" font-size="10.4" lengthAdjust="spacing" textLength="5.784" x="396.8117" y="205.3855">1</text><text fill="#000000" font-family="sans-serif" font-size="10.4" lengthAdjust="spacing" textLength="5.784" x="312.7279" y="267.8659">1</text></g><!--link Language to Board--><g id="link_Language_Board"><path codeLine="76" d="M195.488,221.8109 C195.488,239.8749 195.488,253.9309 195.488,271.7629 " fill="none" id="Language-to-Board" style="stroke:#181818;stroke-width:0.8000000000000002;stroke-dasharray:7.0,7.0;"/><polygon fill="#181818" points="195.488,276.5629,198.688,269.3629,195.488,272.5629,192.288,269.3629,195.488,276.5629" style="stroke:#181818;stroke-width:0.8000000000000002;"/><text fill="#000000" font-family="sans-serif" font-size="10.4" lengthAdjust="spacing" textLength="5.784" x="189.7075" y="239.4803">1</text><text fill="#000000" font-family="sans-serif" font-size="10.4" lengthAdjust="spacing" textLength="5.784" x="189.6939" y="267.9259">1</text></g><!--reverse link Game to CustomDictionary--><g id="link_Game_CustomDictionary"><path codeLine="77" d="M509.088,216.5229 C509.088,243.9789 509.088,265.0509 509.088,291.8429 " fill="none" id="Game-backto-CustomDictionary" style="stroke:#181818;stroke-width:0.8000000000000002;"/><polygon fill="#181818" points="509.088,206.9229,505.888,211.7229,509.088,216.5229,512.288,211.7229,509.088,206.9229" style="stroke:#181818;stroke-width:0.8000000000000002;"/><text fill="#000000" font-family="sans-serif" font-size="10.4" lengthAdjust="spacing" textLength="5.784" x="503.2857" y="224.4495">1</text><text fill="#000000" font-family="sans-serif" font-size="10.4" lengthAdjust="spacing" textLength="5.784" x="503.2658" y="282.9904">1</text></g><!--link Language to CustomDictionary--><g id="link_Language_CustomDictionary"><path codeLine="78" d="M320.104,221.6429 C351.552,245.0669 380.9586,266.9676 410.6546,289.0876 " fill="none" id="Language-to-CustomDictionary" style="stroke:#181818;stroke-width:0.8000000000000002;stroke-dasharray:7.0,7.0;"/><polygon fill="#181818" points="414.504,291.9549,410.6414,285.0876,411.2961,289.5655,406.8183,290.2202,414.504,291.9549" style="stroke:#181818;stroke-width:0.8000000000000002;"/><text fill="#000000" font-family="sans-serif" font-size="10.4" lengthAdjust="spacing" textLength="5.784" x="322.3067" y="239.3016">1</text><text fill="#000000" font-family="sans-serif" font-size="10.4" lengthAdjust="spacing" textLength="5.784" x="400.8491" y="283.1117">1</text></g><!--link Language to Die--><g id="link_Language_Die"><path codeLine="79" d="M70.048,221.6509 C57.4,236.2669 46.4,252.3229 38.688,269.6109 C4.8,345.5949 6.48,380.0989 38.688,456.8109 C46.64,475.7549 56.5652,489.5617 71.0852,504.2817 " fill="none" id="Language-to-Die" style="stroke:#181818;stroke-width:0.8000000000000002;stroke-dasharray:7.0,7.0;"/><polygon fill="#181818" points="74.456,507.6989,71.6779,500.3259,71.647,504.8512,67.1216,504.8203,74.456,507.6989" style="stroke:#181818;stroke-width:0.8000000000000002;"/><text fill="#000000" font-family="sans-serif" font-size="10.4" lengthAdjust="spacing" textLength="5.784" x="56.2315" y="239.3101">1</text><text fill="#000000" font-family="sans-serif" font-size="10.4" lengthAdjust="spacing" textLength="5.784" x="62.4003" y="499.9567">1</text></g><!--reverse link Board to Die--><g id="link_Board_Die"><path codeLine="80" d="M170.6845,459.157 C165.8445,477.741 163.264,487.6269 158.816,504.6829 " fill="none" id="Board-backto-Die" style="stroke:#181818;stroke-width:0.8000000000000002;"/><polygon fill="#181818" points="173.104,449.8669,168.7975,453.7055,170.6845,459.157,174.9909,455.3185,173.104,449.8669" style="stroke:#181818;stroke-width:0.8000000000000002;"/><text fill="#000000" font-family="sans-serif" font-size="10.4" lengthAdjust="spacing" textLength="5.784" x="165.9639" y="466.8017">1</text><text fill="#000000" font-family="sans-serif" font-size="10.4" lengthAdjust="spacing" textLength="15.6102" x="144.3573" y="495.7825">1..*</text></g><!--reverse link Player to WordCloud--><g id="link_Player_WordCloud"><path codeLine="81" d="M754.386,465.9384 C742.954,494.2904 734.872,514.3229 726.8,534.3389 " fill="none" id="Player-backto-WordCloud" style="stroke:#181818;stroke-width:0.8000000000000002;"/><polygon fill="#181818" points="757.976,457.0349,753.2132,460.29,754.386,465.9384,759.1488,462.6833,757.976,457.0349" style="stroke:#181818;stroke-width:0.8000000000000002;"/><text fill="#000000" font-family="sans-serif" font-size="10.4" lengthAdjust="spacing" textLength="5.784" x="749.8046" y="474.7059">1</text><text fill="#000000" font-family="sans-serif" font-size="10.4" lengthAdjust="spacing" textLength="5.784" x="722.704" y="525.3852">1</text></g><!--SRC=[fLPBZzem4BxpAqQSmXQGscihf9BjeafiImjg3uY3IRp1gh6HxUmkNV7VEtOUvE4WK3b0udbyCvy_Zn5aJ_M1H1IcCaauXRSUu2VYH6kuPyMx_OmWsX6rti0Jkkl6CZmppRQSFg2jDBsp6OAVHCHo3yhz32f65_Vh70Tla53p4KuL7oOCB2H-wxhrrAlKESCcQeLgGmoBO6dauOMOQ0S7JevKbUzjLujZKYLMR4yxhD8Gla8NtRRFcJQV5WvZacFP9N-YhIGgNhA_7fml-osDL_JLW8waelQfmeKFR562-TZB8vubY-6HC14CskHDRJa-zefzQrjmLzV3JTP81ndQA2QI2Jp9LCI_fOfrHrbV1JECSAGZiEHeV1XqkCv9Ag9Tu35lfUImejfOf233XXTy7e9CCMcsW4hN9A5TyQ4K1ZdIrNYFRsurSkaUVEKu1joNbVXa0YiPueDTyUt0d8WanS9ycv2ZyTmbbB57Dakf38rBmA6L6UhG7Pi5geCQGzMrONlo-ZsAKgMem6D-8JoV1joP5qfkoPPnt4nwnLOtskgcULvf_8B2_QqyrbefmlLDEHPr5Y_KuCRPZ9hCSNeyKt9qqZwStptzMe-Gy2ZbnD2bFVrj7TPKOwKUSfbMpswTxnaLL66sqZEuPv5XKX1rp0zetgI5qCE2Su7Zr0COfjh8_Jc5T-8w3YimcBx8kzxaGDFZd8h4xAu8ppR24tz9qKtuiiKGXv6v6RqTNWFlrFX_pXcNxaVAeZ-shg3W08XIvEYgifugwm-ey6aaknqQ6rNkSMNLPREYgwnrYSKxqZEaeAMWeYMt_CtTq_vBtadUP-mguw4imnTr5TEEuizntBmrFAMlwkC-WyhStB-F_li-t8r6qFym7j_rSpfyTloTdk_DSlJRzV5uqhItOfk7y4AQ6rpnGi-isP-1Cw1hfhJcSghMKywMtgdt3m00]--></g></svg>